<?xml version="1.0" encoding="utf-8"?>
<!-- Generator: Adobe Illustrator 16.0.0, SVG Export Plug-In . SVG Version: 6.00 Build 0)  -->
<!DOCTYPE svg PUBLIC "-//W3C//DTD SVG 1.1//EN" "http://www.w3.org/Graphics/SVG/1.1/DTD/svg11.dtd">
<svg version="1.1" id="Layer_1" xmlns="http://www.w3.org/2000/svg" xmlns:xlink="http://www.w3.org/1999/xlink" x="0px" y="0px"
	 width="130px" height="100px" viewBox="0 0 130 100" enable-background="new 0 0 130 100" xml:space="preserve">
<g>
	<g>
		<g>
			<g>
				<path d="M94.839,19.938c0.069,0.005,0.14,0.01,0.206,0.019C94.973,19.952,94.908,19.947,94.839,19.938z"/>
				<path d="M83.014,48.101c0.004-0.004,0.004-0.004,0.008-0.009c-0.004,0.005-0.004,0.005-0.004,0.005
					C83.018,48.173,83.014,48.173,83.014,48.101z"/>
				<path d="M78.715,1.27c-0.005,0-0.007,0-0.012,0c0,0,0.005-0.004,0.005-0.009C78.784,1.266,78.784,1.27,78.715,1.27z"/>
				<path d="M29.757,31.515c0.438-1.603,1.231-3.038,2.186-4.249c0.959-1.219,2.087-2.243,3.333-2.942
					c0.153-0.086,0.317-0.163,0.473-0.239l0.063-0.034l0.06-0.024l0.116-0.052c0.078-0.033,0.152-0.067,0.237-0.095
					c0.331-0.13,0.655-0.23,0.982-0.307c0.654-0.153,1.303-0.201,1.92-0.172c0.62,0.033,1.206,0.144,1.741,0.311
					c0.268,0.077,0.522,0.172,0.764,0.282c0.471-0.731,0.39-1.564,1.847-1.785c1.113-0.167,2.19-0.172,3.217-0.804
					c-0.313,0.583-0.863,0.89-1.485,1.086c0.838-0.239,2,0.282,2.857,0.679c-0.305,0.057-1.002,0.201-1.306,0.292
					c0.871,0.412,2.049,0.636,2.404,1.851c-0.187-0.086-0.811-0.42-0.967-0.512c0.858,0.627,0.685,1.861,1.509,2.425
					c-0.146-0.067-0.402-0.115-0.545-0.191c0.342,1.071,1.014,1.421,1.971,1.865c-0.619,0.345-1.499-0.067-1.994-0.464
					c0.146,0.134,0.256,0.249,0.4,0.383c-0.725,0.058-1.357-0.765-1.63-1.33c0.028,0.502,0.176,1.023,0.472,1.426
					c-1.077-0.153-1.864-0.65-2.438-1.584c-0.172,0.46,0.191,1.269,0.438,1.684c-1.232-0.311-1.565-1.641-2.23-2.449
					c0.066,0.377,0.137,0.77,0.226,1.143c-0.621-0.115-0.994-0.684-1.222-1.249c-0.178,0.383,0.287,1.78,0.497,2.167
					c-1.338-0.459-2.522-2.875-2.315-4.124l0.02-0.172c0.048-0.053,0.094-0.101,0.136-0.153c-0.224-0.082-0.456-0.157-0.698-0.22
					c-0.522-0.139-1.087-0.22-1.679-0.234c-0.588,0-1.197,0.072-1.809,0.239c-0.302,0.086-0.611,0.196-0.904,0.325
					c-0.145,0.063-0.31,0.144-0.448,0.21c-0.144,0.086-0.291,0.158-0.433,0.25c-1.144,0.703-2.185,1.722-3.044,2.913
					c-0.863,1.192-1.548,2.579-1.891,4.057c-0.158,0.737-0.231,1.493-0.165,2.239c0.027,0.182,0.039,0.369,0.08,0.545
					c0.02,0.091,0.032,0.182,0.057,0.273l0.073,0.263c0.023,0.091,0.056,0.172,0.089,0.263c0.032,0.086,0.06,0.168,0.098,0.254
					c0.083,0.163,0.148,0.34,0.239,0.478c0.045,0.077,0.083,0.148,0.134,0.225l0.171,0.249l0.085,0.125c-0.021-0.034,0,0-0.002-0.01
					l0.013,0.019l0.022,0.024l0.046,0.052l0.176,0.225c0.249,0.278,0.505,0.555,0.793,0.794c0.136,0.125,0.289,0.235,0.433,0.354
					c0.15,0.101,0.296,0.22,0.456,0.315c0.311,0.206,0.642,0.374,0.974,0.541c0.672,0.312,1.375,0.545,2.095,0.704
					c0.714,0.162,1.44,0.249,2.159,0.287c0.72,0.038,1.436,0.023,2.128-0.034c0.697-0.053,1.375-0.144,2.03-0.268
					c0.333-0.057,0.629-0.12,0.966-0.201l0.121-0.029l0.103-0.024c0.073-0.024,0.146-0.039,0.218-0.062
					c0.144-0.039,0.288-0.086,0.434-0.134c0.581-0.201,1.152-0.431,1.708-0.66c1.114-0.45,2.169-0.88,3.158-1.192
					c0.986-0.311,1.91-0.502,2.73-0.541c0.763-0.038,1.41,0.058,1.873,0.196c2.93-2.488,6.334-1.938,9.75-2.947
					c1.503-0.45,3.165-1.253,4.343-2.334c0.381-0.349,1.592-1.675,1.485-2.21c-0.181-0.904-1.13-0.641-1.616,0.01
					c-0.305-1.421,2.727-1.234,3.005-2.813c-0.897-0.125-2.419-0.856-0.934-1.708c-0.427,1.583,2.019-0.172,2.231-1.139
					c0.437-1.976-1.646-2.119-1.986-0.411c-0.412-2.89,4.41-1.914,3.799-4.674c-0.893-0.402-1.676,0.369-1.592,1.306
					c-0.463-1.603,0.394-2.598,2.084-2.809c-0.914,0.043-1.514-0.531-1.791-1.392c0.68,0.588,1.688,0.411,2.209-0.215
					c-0.506-0.125-0.726-0.287-1.077-0.608c0.854,0.307,2.379-0.358,1.669-1.526c-0.587-0.966-1.982-0.139-2.089,0.775
					c-0.054-0.947,0.653-1.636,1.399-2.057c-1.354-0.177-2.359,0.426-3.219,1.45c0.313-1.153,1.432-2.02,2.689-1.971
					c-1.215,0.019-5.426-1.388-2.594-2.603C71.667,10.84,74.336,9.72,75,9.227c1.046-0.77,1.448-2.1,2.563-2.746
					c-0.688-0.038-1.998-0.68-0.988-1.287c0.21,1.771,3.639-1.603,4.525-1.521c-0.8-0.359-1.875,0.067-2.599-0.474
					c-0.701-0.521-0.966-1.957,0.202-1.933c-1.239,1.675,2.199,1.479,2.908,1.407c1.143-0.124,2.723-0.397,3.679,0.388
					c-0.373-0.541-0.972-0.88-1.533-1.196c0.827,0.119,1.497,0.22,2.251,0.631c0.775,0.431,1.239,1.201,2.223,1.058
					c-0.303-0.344-0.656-0.723-0.957-1.091c0.901,0.574,1.932,0.799,2.785,1.479c-0.313-0.828-1.506-1.12-1.979-2.063
					c1.238,0.89,3.545,1.144,3.997,2.89c0.563-0.235,0.573-0.88,0.383-1.459c0.763,0.875,1.095,1.631,0.203,2.579l0.022-0.024
					c1.875-0.139,2.535,0.775,3.898,1.76c1.145,0.823,3.396,0.617,4.191,1.603c0.88,1.086-0.342,2.985-0.959,3.789
					c-1.121,1.469-2.295,0.44-3.811,1.316c1.285-0.307,2.344-0.392,2.657,0.775c0.297,1.081-0.394,1.856,0.692,2.928
					c-0.993,0.082-1.041-0.842-1.562-1.134c0.048,0.435,0.743,1.717,1.007,2.081c-0.632-0.431-1.546-1.646-1.919-2.258
					c-0.134,0.311-0.581,0.378-0.507,1.076c-0.102-0.177-0.345-0.388-0.383-0.45c0.018,0.311-0.049,0.641-0.016,0.957
					c-0.129-1.019-1.961-2.866-3.123-2.177c-1.229,0.732,1.474,2.393,2.287,2.512c-0.834,0.024-1.576-0.057-2.349-0.206
					c0.462,0.818,1.104,1.378,2.04,1.498c-0.395-0.038-0.766-0.067-1.143-0.172c0.572,0.827,1.265,1.286,2.252,1.497
					c-1.049,0.646-1.705-0.497-2.676-0.588c1.199,0.923,1.438,1.856,1.383,3.344c0.252,0.411,0.396,0.861,0.326,1.325
					c-0.334-0.392-0.687-0.741-1.104-1.004c0.559,0.512,0.743,1.488,0.674,2.234c-0.124-0.12-0.275-0.244-0.43-0.364
					c0.932,1.01,1.037,2.684,0.449,3.885c-0.457-0.45-0.813-1.11-1.396-1.464c0.313,0.669,0.367,1.416,0.221,2.143
					c-0.188-0.56-0.543-1.244-1.195-1.382c0.469,0.741,1,3.315-0.325,3.411c-0.022-0.789-0.249-1.569-0.599-2.267
					c0.68,3.435-1.152,5.77-2.028,8.803c-0.415,1.425-1.329,2.707-1.708,4.123c-0.426,1.584-0.043,3.096,0.303,4.626
					c0.377,1.693,1.096,2.626,1.86,4.219c1.151,2.411,2.946,0.574,4.116,1.407c1.207,0.852,0.793,2.009,0.305,2.605
					c-0.518,0.638-1.643,0.217-2.264,0.054c-1.614-0.421-2.761-0.563-4.42-0.856c-0.666-0.119-1.526-0.287-2.012-0.852
					c-0.51-0.598-0.505-1.406-0.708-2.157c-0.172-0.637-0.563-1.114-0.696-1.813c-0.153-0.79,0.123-1.648-0.119-2.392
					c-0.183,0.125-0.532,0.182-0.67,0.268c0.114-0.283,0.082-0.68,0.172-0.952c-0.092,0.129-0.282,0.33-0.383,0.474
					c0.17-1.158-0.526-2.426-0.828-3.507c-0.179,0.134-0.36,0.1-0.569,0.354c0.086-0.254,0.015-0.502,0.075-0.741
					c-0.219,0.172-0.445,0.229-0.653,0.382c0.292-0.431,0.271-0.727,0.345-1.21c-0.617,0.861-2.076,0.062-2.92,0.674
					c-0.697,0.502-0.998,1.765-1.078,2.531c-0.097,0.938,0.152,2.062,0.403,2.913c0.285,0.952,1.056,1.474,1.317,2.397
					c0.846-0.199,3.33-0.455,2.69,1.188c1.366-0.556,2.461,2.392,0.009,2.55c-1.537,0.097-3.328-0.145-4.92-0.2
					c-1.464-0.06-3.212,0.146-3.801-1.412c-0.479-1.274-0.081-3.296-0.139-4.708c-0.146,0.067-0.408,0.086-0.567,0.177
					c0.086-0.182,0.086-0.579,0.164-0.756c-0.183,0.115-0.42,0.167-0.573,0.249c1.092-1.378-0.555-3.181-0.525-4.793
					c-0.242,0.129-0.764,0.22-0.979,0.373c0.218-0.32,0.314-0.741,0.479-1.057c-0.315,0.23-0.7,0.459-0.967,0.684
					c0.441-0.314,0.637-0.78,0.557-1.311c-0.889,0.402-2.045,0.134-2.98,0.01c-0.007,0.029-0.018,0.057-0.021,0.082
					c-0.098,0.129,0.54,1.655,0.52,2.014c-0.031,0.57-0.316,1.574-0.509,2.11c-0.438,1.205-1.521,2.038-2.81,2.411
					c-0.506,0.148-2.02-0.077-2.223,0.598c-0.226,0.751,1.152,1.397,1.469,1.813c0.95,1.254,1.841,1.336,3.086,1.73
					c0.509,0.158,2.486-0.302,2.562,1.205c0.046,0.877-2.2,1.058-2.786,1.058c-1.548-0.004-3.264,0.234-4.596-0.452
					c-2.524-1.302-1.773-5.66-4.813-6.028c0.162-0.077,0.351-0.249,0.532-0.33c-0.277,0.024-0.559-0.019-0.833,0.01
					c0.324-0.196,0.755-0.464,0.98-0.512c-0.301,0.014-0.616-0.029-0.908-0.019c1.051-0.517,3.516-0.302,3.382-1.866
					c-0.05-0.617-0.813-1.483-1.482-1.536c-0.981-0.077-1,0.584-1.433,1.21c-1.531,2.21-4.79,5.66-7.776,3.206
					c0.927,1.082,0.562,2.641,1.173,3.827c0.729,1.41,3.316,0.863,3.791,2.339c0.677,2.108-5.888,3.665-6.933,1.28
					c-0.118,0.169-0.863-0.086-0.961,0.087c0.088-0.675,0.193-1.404,0.368-2.084c-0.264,0.139-0.706,0.188-0.979,0.372
					c0.116-0.438,0.317-0.892,0.577-1.272c-0.398,0.191-0.781,0.407-1.094,0.752c-0.084-1.01,1.033-1.491,1.212-2.573
					c0.158-0.972,0.274-2.383,0.188-3.302c-0.521-0.063-1.068,0.158-1.481,0.369c0.076-0.483,0.335-0.89,0.761-1.172
					c-0.33,0.072-0.71,0.005-1.04,0.067c0.396-0.402,0.423-0.569,1.04-0.607c-0.445-0.182-0.758-0.345-1.267-0.301
					c0.69-0.761,2.313,0.038,3.404-0.607c1.251-0.732,1.794-2.091,2.24-3.387c0.499-1.459,0.926-3.124,1.719-4.541
					c-0.107-0.004-0.224-0.009-0.344-0.009c-0.594,0.005-1.365,0.115-2.258,0.364c-0.898,0.234-1.916,0.603-3.058,1.014
					c-0.572,0.206-1.174,0.421-1.836,0.622c-0.168,0.043-0.334,0.09-0.51,0.134c-0.085,0.023-0.176,0.043-0.267,0.062l-0.144,0.029
					l-0.123,0.024c-0.319,0.062-0.699,0.125-1.045,0.177c-0.711,0.101-1.447,0.172-2.204,0.196
					c-0.755,0.029-1.531,0.014-2.319-0.058c-0.786-0.072-1.586-0.201-2.379-0.416c-0.793-0.211-1.579-0.507-2.331-0.895
					c-0.37-0.201-0.741-0.416-1.085-0.669c-0.179-0.115-0.342-0.254-0.511-0.383c-0.161-0.144-0.332-0.268-0.48-0.425
					c-0.32-0.292-0.602-0.617-0.872-0.947l-0.194-0.258l-0.107-0.153l-0.082-0.124l-0.166-0.254
					c-0.055-0.096-0.108-0.201-0.16-0.301c-0.426-0.804-0.617-1.669-0.67-2.531C29.43,33.16,29.546,32.318,29.757,31.515z"/>
				<path d="M46.706,21.401c-0.002,0-0.007,0.004-0.01,0.004c0.003-0.004,0.005-0.009,0.008-0.014
					C46.719,21.358,46.722,21.358,46.706,21.401z"/>
			</g>
			<path d="M105.227,60.357c0,0-27.16-14.419-67.792,1.773C37.433,62.133,73.607,50.669,105.227,60.357z"/>
			<path d="M103.041,63.046c0,0-24.025-9.61-49.837-2.88C53.204,60.166,78.607,51.105,103.041,63.046z"/>
			<path d="M100.402,11.853c-0.474,0.096-0.655-0.196-0.67-0.498c-0.004-0.067,0.125-0.813-0.226-0.704
				c-0.165,0.048,0.081,0.876,0.122,0.938c0.208,0.311,0.361,0.344,0.771,0.278"/>
		</g>
	</g>
</g>
<g>
	<path d="M2.383,98.158v-6.283h1.279v5.216h3.181v1.068L2.383,98.158L2.383,98.158z"/>
	<path d="M7.753,98.158v-6.336h4.697v1.07H9.032V94.3h3.18v1.067h-3.18v1.726h3.54v1.067H7.753V98.158z"/>
	<path d="M19.367,98.158h-1.391l-0.555-1.439H14.89l-0.523,1.439H13.01l2.467-6.336h1.353L19.367,98.158z M17.013,95.652
		L16.141,93.3l-0.856,2.353H17.013z"/>
	<path d="M20.043,91.822h2.337c0.527,0,0.93,0.04,1.206,0.119c0.372,0.108,0.691,0.307,0.955,0.584
		c0.265,0.281,0.467,0.621,0.605,1.027c0.138,0.405,0.207,0.903,0.207,1.498c0,0.521-0.065,0.973-0.194,1.348
		c-0.159,0.461-0.384,0.836-0.678,1.119c-0.222,0.215-0.522,0.383-0.9,0.506c-0.283,0.089-0.659,0.135-1.133,0.135h-2.406
		L20.043,91.822L20.043,91.822z M21.323,92.895v4.196h0.955c0.356,0,0.615-0.021,0.773-0.062c0.207-0.053,0.379-0.142,0.516-0.264
		c0.137-0.127,0.249-0.328,0.334-0.613c0.087-0.283,0.13-0.67,0.13-1.158c0-0.49-0.043-0.866-0.13-1.127
		c-0.087-0.264-0.207-0.467-0.363-0.615c-0.155-0.146-0.351-0.245-0.592-0.298c-0.178-0.04-0.528-0.062-1.049-0.062h-0.574V92.895z"
		/>
	<path d="M26.438,98.158v-6.336h4.698v1.07h-3.419V94.3h3.181v1.067h-3.181v1.726h3.541v1.067h-4.819L26.438,98.158L26.438,98.158z"
		/>
	<path d="M32.344,98.158v-6.336h2.691c0.678,0,1.17,0.057,1.476,0.17c0.308,0.113,0.552,0.316,0.736,0.607
		c0.185,0.291,0.277,0.625,0.277,0.998c0,0.475-0.14,0.869-0.418,1.178c-0.28,0.309-0.698,0.505-1.254,0.587
		c0.278,0.157,0.505,0.337,0.685,0.53c0.179,0.193,0.423,0.535,0.728,1.029l0.774,1.235H36.51l-0.926-1.38
		c-0.329-0.491-0.553-0.803-0.674-0.93c-0.122-0.129-0.25-0.217-0.385-0.265c-0.135-0.048-0.35-0.072-0.644-0.072h-0.259v2.646
		L32.344,98.158L32.344,98.158z M33.625,94.502h0.946c0.614,0,0.996-0.025,1.148-0.075c0.153-0.054,0.272-0.145,0.359-0.271
		c0.087-0.127,0.13-0.284,0.13-0.475c0-0.213-0.058-0.387-0.17-0.517c-0.114-0.131-0.275-0.214-0.483-0.249
		c-0.104-0.016-0.416-0.021-0.934-0.021h-0.998L33.625,94.502L33.625,94.502z"/>
	<path d="M38.407,96.098l1.244-0.121c0.076,0.416,0.227,0.722,0.458,0.918c0.228,0.196,0.538,0.295,0.926,0.295
		c0.411,0,0.723-0.086,0.932-0.263c0.209-0.173,0.314-0.375,0.314-0.608c0-0.15-0.044-0.28-0.131-0.385
		c-0.089-0.104-0.243-0.197-0.461-0.273c-0.149-0.053-0.491-0.143-1.023-0.275c-0.686-0.17-1.168-0.378-1.444-0.628
		c-0.389-0.35-0.583-0.774-0.583-1.274c0-0.322,0.091-0.625,0.275-0.903c0.183-0.282,0.447-0.495,0.791-0.644
		c0.344-0.147,0.759-0.222,1.247-0.222c0.795,0,1.394,0.177,1.796,0.526c0.401,0.347,0.612,0.812,0.633,1.395l-1.279,0.057
		c-0.053-0.326-0.172-0.561-0.352-0.705c-0.181-0.141-0.45-0.211-0.81-0.211c-0.372,0-0.663,0.074-0.874,0.229
		c-0.134,0.098-0.202,0.229-0.202,0.395c0,0.15,0.063,0.277,0.189,0.385c0.162,0.136,0.553,0.275,1.175,0.423
		c0.623,0.146,1.082,0.299,1.381,0.455c0.297,0.157,0.531,0.371,0.699,0.646c0.17,0.271,0.254,0.606,0.254,1.01
		c0,0.362-0.101,0.703-0.304,1.02c-0.201,0.314-0.487,0.552-0.854,0.707c-0.369,0.154-0.828,0.232-1.378,0.232
		c-0.801,0-1.416-0.188-1.845-0.557C38.748,97.345,38.489,96.804,38.407,96.098z"/>
	<path d="M44.638,98.158v-6.336h1.281v2.494h2.507v-2.494h1.279v6.336h-1.279v-2.771h-2.507v2.771H44.638z"/>
	<path d="M50.986,98.158v-6.336h1.279v6.336H50.986z"/>
	<path d="M53.484,98.158v-6.336h2.052c0.777,0,1.286,0.031,1.522,0.096c0.364,0.098,0.667,0.301,0.913,0.619
		c0.245,0.318,0.367,0.73,0.367,1.234c0,0.391-0.071,0.718-0.212,0.979c-0.142,0.267-0.321,0.476-0.538,0.626
		c-0.217,0.15-0.438,0.251-0.664,0.301c-0.306,0.061-0.748,0.09-1.326,0.09h-0.834v2.392L53.484,98.158L53.484,98.158z
		 M54.763,92.895v1.797h0.7c0.504,0,0.84-0.032,1.012-0.099c0.17-0.067,0.302-0.17,0.398-0.312c0.097-0.141,0.145-0.307,0.145-0.492
		c0-0.23-0.068-0.422-0.203-0.573c-0.135-0.147-0.308-0.241-0.514-0.28c-0.153-0.025-0.459-0.043-0.919-0.043h-0.619L54.763,92.895
		L54.763,92.895z"/>
	<path d="M61.683,91.822h2.337c0.527,0,0.929,0.04,1.206,0.119c0.372,0.108,0.69,0.307,0.956,0.584
		c0.265,0.281,0.467,0.621,0.604,1.027c0.14,0.405,0.208,0.903,0.208,1.498c0,0.521-0.066,0.973-0.195,1.348
		c-0.157,0.461-0.384,0.836-0.678,1.119c-0.224,0.215-0.522,0.383-0.898,0.506c-0.284,0.089-0.66,0.135-1.134,0.135h-2.404
		L61.683,91.822L61.683,91.822z M62.961,92.895v4.196h0.955c0.356,0,0.615-0.021,0.772-0.062c0.208-0.053,0.379-0.142,0.517-0.264
		c0.136-0.127,0.249-0.328,0.334-0.613c0.088-0.283,0.131-0.67,0.131-1.158c0-0.49-0.043-0.866-0.131-1.127
		c-0.085-0.264-0.206-0.467-0.36-0.615c-0.156-0.146-0.353-0.245-0.594-0.298c-0.178-0.04-0.527-0.062-1.049-0.062h-0.575V92.895z"
		/>
	<path d="M68.076,98.158v-6.336h4.697v1.07h-3.418V94.3h3.181v1.067h-3.181v1.726h3.539v1.067h-4.818V98.158z"/>
	<path d="M75.595,98.158l-2.265-6.336h1.385l1.605,4.688l1.551-4.688h1.355l-2.268,6.336H75.595z"/>
	<path d="M79.88,98.158v-6.336h4.698v1.07h-3.417V94.3h3.179v1.067h-3.179v1.726h3.538v1.067H79.88V98.158z"/>
	<path d="M85.816,98.158v-6.283h1.281v5.216h3.182v1.068L85.816,98.158L85.816,98.158z"/>
	<path d="M90.929,95.031c0-0.646,0.099-1.188,0.291-1.629c0.145-0.32,0.343-0.611,0.591-0.867c0.248-0.258,0.522-0.447,0.816-0.57
		c0.395-0.164,0.852-0.25,1.366-0.25c0.935,0,1.681,0.29,2.241,0.867c0.561,0.58,0.84,1.387,0.84,2.418
		c0,1.023-0.277,1.822-0.833,2.4s-1.3,0.865-2.229,0.865c-0.939,0-1.69-0.285-2.246-0.861
		C91.208,96.828,90.929,96.037,90.929,95.031z M92.249,94.986c0,0.717,0.166,1.26,0.498,1.631c0.328,0.371,0.75,0.554,1.261,0.554
		c0.508,0,0.928-0.184,1.254-0.548c0.328-0.368,0.492-0.92,0.492-1.652c0-0.727-0.16-1.268-0.479-1.626
		c-0.316-0.356-0.74-0.534-1.268-0.534c-0.529,0-0.951,0.181-1.277,0.541C92.411,93.712,92.249,94.257,92.249,94.986z"/>
	<path d="M98.072,98.158v-6.336h2.051c0.779,0,1.286,0.031,1.521,0.096c0.363,0.098,0.668,0.301,0.914,0.619
		c0.241,0.318,0.365,0.73,0.365,1.234c0,0.391-0.068,0.718-0.21,0.979c-0.146,0.267-0.321,0.476-0.54,0.626
		c-0.217,0.15-0.438,0.251-0.664,0.301c-0.306,0.061-0.748,0.09-1.324,0.09H99.35v2.392L98.072,98.158L98.072,98.158z
		 M99.352,92.895v1.797h0.699c0.506,0,0.842-0.032,1.014-0.099c0.17-0.067,0.303-0.17,0.397-0.312
		c0.099-0.141,0.146-0.307,0.146-0.492c0-0.23-0.065-0.422-0.202-0.573c-0.134-0.147-0.306-0.241-0.515-0.28
		c-0.151-0.025-0.459-0.043-0.918-0.043h-0.621V92.895z"/>
	<path d="M103.96,98.158v-6.336h1.914l1.147,4.322l1.138-4.322h1.921v6.336h-1.189V93.17l-1.258,4.988h-1.229l-1.258-4.988v4.988
		H103.96z"/>
	<path d="M111.352,98.158v-6.336h4.694v1.07h-3.418V94.3h3.179v1.067h-3.179v1.726h3.537v1.067h-4.813V98.158z"/>
	<path d="M117.262,98.158v-6.336h1.246l2.594,4.231v-4.231h1.189v6.336h-1.285l-2.554-4.135v4.135H117.262z"/>
	<path d="M125.066,98.158v-5.266h-1.881v-1.071h5.037v1.071h-1.875v5.266H125.066z"/>
</g>
<g>
	<path d="M19.632,67.095l0.462,6.866h-0.462c-0.614-2.051-1.494-3.529-2.633-4.434c-1.142-0.903-2.507-1.355-4.096-1.355
		c-1.346,0-2.561,0.34-3.645,1.02c-1.083,0.683-1.933,1.765-2.547,3.252C6.095,73.93,5.788,75.783,5.788,78
		c0,1.818,0.292,3.4,0.875,4.741c0.583,1.34,1.464,2.366,2.644,3.085c1.179,0.719,2.52,1.076,4.019,1.076
		c1.308,0,2.464-0.282,3.471-0.846c1.006-0.563,2.105-1.679,3.298-3.346l0.461,0.307c-1.013,1.795-2.192,3.109-3.538,3.94
		c-1.347,0.835-2.95,1.252-4.808,1.252c-3.345,0-5.936-1.244-7.768-3.731c-1.372-1.832-2.059-4.004-2.059-6.52
		c0-2.011,0.452-3.859,1.356-5.546c0.904-1.687,2.146-2.993,3.73-3.923c1.583-0.928,3.311-1.396,5.182-1.396
		c1.462,0,2.904,0.359,4.328,1.077c0.409,0.22,0.705,0.328,0.883,0.328c0.27,0,0.506-0.089,0.712-0.271
		c0.256-0.27,0.435-0.646,0.538-1.137h0.519V67.095z"/>
	<path d="M29.228,73.712c2.063,0,3.723,0.782,4.98,2.345c1.064,1.346,1.596,2.885,1.596,4.616c0,1.229-0.294,2.472-0.884,3.72
		c-0.589,1.252-1.397,2.192-2.422,2.827c-1.027,0.634-2.167,0.951-3.423,0.951c-2.051,0-3.685-0.819-4.904-2.461
		c-1.025-1.385-1.538-2.935-1.538-4.655c0-1.24,0.311-2.48,0.933-3.719c0.622-1.236,1.438-2.15,2.452-2.741
		C27.028,74.007,28.1,73.712,29.228,73.712z M28.766,74.673c-0.526,0-1.055,0.155-1.585,0.47c-0.532,0.314-0.962,0.863-1.289,1.646
		c-0.327,0.783-0.492,1.785-0.492,3.018c0,1.987,0.395,3.7,1.183,5.145c0.788,1.441,1.83,2.164,3.125,2.164
		c0.962,0,1.756-0.396,2.384-1.192c0.628-0.795,0.942-2.16,0.942-4.096c0-2.425-0.525-4.326-1.576-5.712
		C30.753,75.154,29.856,74.673,28.766,74.673z"/>
	<path d="M41.785,76.594c1.603-1.921,3.127-2.882,4.576-2.882c0.744,0,1.381,0.185,1.914,0.558c0.532,0.371,0.958,0.985,1.278,1.846
		c0.219,0.59,0.328,1.5,0.328,2.73v5.826c0,0.859,0.069,1.442,0.212,1.748c0.115,0.245,0.294,0.438,0.538,0.577
		c0.243,0.144,0.693,0.213,1.346,0.213v0.538h-6.749V87.21h0.288c0.628,0,1.07-0.097,1.327-0.289
		c0.257-0.192,0.429-0.474,0.521-0.845c0.05-0.155,0.077-0.622,0.077-1.404v-5.578c0-1.24-0.164-2.146-0.49-2.711
		c-0.326-0.563-0.869-0.846-1.625-0.846c-1.179,0-2.358,0.646-3.538,1.941v7.191c0,0.924,0.057,1.492,0.173,1.71
		c0.14,0.283,0.329,0.49,0.567,0.627c0.237,0.136,0.733,0.201,1.491,0.201v0.538h-6.75V87.21h0.289c0.705,0,1.175-0.177,1.413-0.528
		c0.237-0.353,0.355-1.021,0.355-2.01v-5.057c0-1.641-0.036-2.641-0.105-3.002c-0.071-0.358-0.183-0.603-0.337-0.729
		c-0.153-0.13-0.359-0.19-0.615-0.19c-0.282,0-0.616,0.076-1,0.229l-0.231-0.539l4.114-1.672h0.635L41.785,76.594L41.785,76.594z"/>
	<path d="M61.88,73.712v4.652h-0.5c-0.373-1.462-0.852-2.455-1.442-2.98c-0.591-0.526-1.347-0.789-2.27-0.789
		c-0.691,0-1.25,0.186-1.672,0.548c-0.423,0.365-0.635,0.772-0.635,1.225c0,0.55,0.16,1.023,0.48,1.423
		c0.296,0.409,0.917,0.847,1.866,1.306l2.17,1.041c2.015,0.984,3.021,2.281,3.021,3.883c0,1.242-0.469,2.248-1.404,3.012
		c-0.938,0.762-1.988,1.144-3.154,1.144c-0.833,0-1.782-0.153-2.845-0.462c-0.334-0.091-0.603-0.134-0.809-0.134
		c-0.231,0-0.411,0.128-0.538,0.383h-0.5V83.1h0.5c0.282,1.383,0.814,2.428,1.597,3.133c0.781,0.707,1.66,1.06,2.633,1.06
		c0.681,0,1.238-0.2,1.673-0.604c0.437-0.404,0.653-0.888,0.653-1.451c0-0.68-0.239-1.252-0.72-1.724
		c-0.48-0.466-1.442-1.058-2.885-1.767c-1.442-0.714-2.387-1.357-2.836-1.936c-0.449-0.563-0.673-1.28-0.673-2.15
		c0-1.118,0.385-2.055,1.155-2.811c0.769-0.756,1.769-1.134,2.999-1.134c0.525,0,1.173,0.114,1.941,0.345
		c0.503,0.154,0.842,0.231,1.02,0.231c0.153,0,0.277-0.036,0.366-0.104c0.088-0.07,0.194-0.229,0.309-0.472h0.5V73.712z"/>
	<path d="M69.627,73.712v10.96c0,0.844,0.063,1.409,0.186,1.691c0.121,0.281,0.305,0.494,0.547,0.634
		c0.244,0.144,0.693,0.213,1.345,0.213v0.538H65.07V87.21c0.667,0,1.118-0.065,1.346-0.19c0.23-0.129,0.415-0.34,0.548-0.638
		c0.136-0.294,0.203-0.866,0.203-1.71v-5.251c0-1.485-0.048-2.446-0.136-2.885c-0.077-0.32-0.189-0.54-0.338-0.662
		c-0.146-0.122-0.349-0.183-0.604-0.183c-0.281,0-0.622,0.078-1.021,0.229l-0.21-0.539l4.116-1.672L69.627,73.712L69.627,73.712z
		 M68.398,66.576c0.412,0,0.761,0.148,1.057,0.441c0.297,0.295,0.441,0.652,0.441,1.076c0,0.41-0.146,0.764-0.441,1.059
		c-0.296,0.297-0.646,0.44-1.057,0.44c-0.424,0-0.782-0.146-1.078-0.44c-0.295-0.295-0.441-0.646-0.441-1.059
		c0-0.424,0.146-0.781,0.441-1.076C67.616,66.725,67.975,66.576,68.398,66.576z"/>
	<path d="M78.07,66.576v18.096c0,0.844,0.063,1.409,0.19,1.691c0.13,0.281,0.32,0.494,0.576,0.634
		c0.256,0.144,0.737,0.213,1.44,0.213v0.538h-6.691V87.21c0.629,0,1.059-0.065,1.29-0.19c0.231-0.129,0.409-0.34,0.538-0.638
		c0.129-0.294,0.189-0.866,0.189-1.71V72.289c0-1.539-0.031-2.486-0.104-2.838c-0.071-0.352-0.184-0.594-0.335-0.721
		c-0.154-0.129-0.354-0.193-0.599-0.193c-0.256,0-0.584,0.077-0.98,0.232l-0.249-0.521l4.076-1.675L78.07,66.576L78.07,66.576z"/>
	<path d="M86.548,73.712v10.96c0,0.844,0.063,1.409,0.185,1.691c0.123,0.281,0.307,0.494,0.55,0.634
		c0.243,0.144,0.692,0.213,1.345,0.213v0.538h-6.633V87.21c0.667,0,1.115-0.065,1.347-0.19c0.229-0.129,0.414-0.34,0.55-0.638
		c0.135-0.294,0.2-0.866,0.2-1.71v-5.251c0-1.485-0.047-2.446-0.136-2.885c-0.076-0.32-0.188-0.54-0.337-0.662
		c-0.146-0.122-0.351-0.183-0.604-0.183c-0.281,0-0.621,0.078-1.021,0.229l-0.21-0.539l4.113-1.672L86.548,73.712L86.548,73.712z
		 M85.318,66.576c0.412,0,0.762,0.148,1.058,0.441c0.297,0.295,0.442,0.652,0.442,1.076c0,0.41-0.146,0.764-0.442,1.059
		c-0.296,0.297-0.646,0.44-1.058,0.44c-0.424,0-0.781-0.146-1.076-0.44c-0.297-0.295-0.442-0.646-0.442-1.059
		c0-0.424,0.146-0.781,0.442-1.076C84.537,66.725,84.896,66.576,85.318,66.576z"/>
	<path d="M102.259,74.113v8.27c0,1.576,0.038,2.543,0.115,2.895c0.076,0.354,0.196,0.598,0.356,0.729
		c0.16,0.136,0.349,0.203,0.565,0.203c0.31,0,0.654-0.083,1.037-0.252l0.213,0.521l-4.078,1.692h-0.672v-2.884
		c-1.165,1.27-2.059,2.066-2.673,2.395c-0.617,0.327-1.264,0.489-1.939,0.489c-0.771,0-1.435-0.222-1.99-0.662
		c-0.562-0.442-0.947-1.015-1.162-1.713c-0.221-0.698-0.331-1.682-0.331-2.951V76.77c0-0.654-0.068-1.104-0.21-1.348
		c-0.139-0.244-0.35-0.433-0.625-0.566c-0.274-0.135-0.766-0.194-1.471-0.183v-0.56h4.771v9.115c0,1.281,0.22,2.119,0.662,2.511
		c0.442,0.39,0.979,0.586,1.604,0.586c0.424,0,0.903-0.132,1.44-0.396c0.538-0.262,1.182-0.771,1.924-1.528v-7.729
		c0-0.771-0.143-1.293-0.423-1.568c-0.283-0.275-0.866-0.42-1.751-0.433v-0.562h4.636L102.259,74.113L102.259,74.113z"/>
	<path d="M109.604,76.613c0.988-0.985,1.572-1.557,1.752-1.711c0.447-0.37,0.935-0.662,1.451-0.875
		c0.521-0.211,1.028-0.315,1.529-0.315c0.857,0,1.596,0.249,2.209,0.749c0.615,0.499,1.025,1.217,1.232,2.152
		c1.021-1.191,1.89-1.976,2.596-2.344c0.705-0.373,1.428-0.56,2.172-0.56c0.717,0,1.357,0.187,1.923,0.56
		c0.564,0.368,1.007,0.979,1.327,1.822c0.219,0.58,0.328,1.481,0.328,2.715v5.863c0,0.846,0.063,1.43,0.191,1.748
		c0.103,0.22,0.289,0.404,0.558,0.559c0.271,0.154,0.706,0.231,1.308,0.231v0.538h-6.729V87.21h0.291
		c0.588,0,1.042-0.114,1.36-0.347c0.231-0.153,0.4-0.404,0.5-0.749c0.041-0.169,0.062-0.648,0.062-1.442v-5.865
		c0-1.115-0.138-1.896-0.404-2.347c-0.384-0.642-1.007-0.962-1.864-0.962c-0.525,0-1.057,0.132-1.586,0.396
		c-0.533,0.263-1.179,0.752-1.934,1.471l-0.021,0.152l0.021,0.654v6.499c0,0.937,0.057,1.517,0.163,1.739
		c0.108,0.225,0.31,0.413,0.596,0.564c0.289,0.155,0.778,0.232,1.472,0.232v0.538H113.2V87.21c0.758,0,1.276-0.091,1.56-0.271
		c0.279-0.182,0.48-0.447,0.596-0.809c0.052-0.167,0.076-0.652,0.076-1.461v-5.863c0-1.115-0.166-1.916-0.5-2.404
		c-0.436-0.627-1.045-0.941-1.826-0.941c-0.539,0-1.068,0.141-1.597,0.423c-0.819,0.438-1.454,0.931-1.903,1.48v7.308
		c0,0.885,0.062,1.461,0.184,1.729c0.122,0.271,0.309,0.473,0.55,0.607c0.242,0.135,0.736,0.201,1.479,0.201v0.538h-6.73V87.21
		c0.627,0,1.064-0.067,1.309-0.201c0.244-0.137,0.431-0.347,0.559-0.637c0.13-0.286,0.191-0.856,0.191-1.7V79.46
		c0-1.501-0.043-2.466-0.135-2.903c-0.063-0.332-0.17-0.561-0.316-0.683s-0.352-0.183-0.605-0.183c-0.281,0-0.613,0.078-1,0.229
		l-0.229-0.539l4.115-1.672h0.633v2.902L109.604,76.613L109.604,76.613z"/>
</g>
</svg>
