<?xml version="1.0" encoding="utf-8"?>
<!-- Generator: Adobe Illustrator 16.0.0, SVG Export Plug-In . SVG Version: 6.00 Build 0)  -->
<!DOCTYPE svg PUBLIC "-//W3C//DTD SVG 1.1//EN" "http://www.w3.org/Graphics/SVG/1.1/DTD/svg11.dtd">
<svg version="1.1" id="Layer_1" xmlns="http://www.w3.org/2000/svg" xmlns:xlink="http://www.w3.org/1999/xlink" x="0px" y="0px"
	 width="150px" height="100px" viewBox="266 179.5 150 100" enable-background="new 266 179.5 150 100" xml:space="preserve">
<g>
	<g>
		<g>
			<g>
				<path fill="#010101" d="M371.406,200.091c0.068,0.006,0.136,0.012,0.205,0.019C371.541,200.105,371.474,200.099,371.406,200.091
					z"/>
				<path fill="#FFFFFF" d="M359.348,228.802c0.002-0.003,0.004-0.006,0.006-0.009c-0.001,0.002-0.001,0.005-0.001,0.008
					C359.351,228.877,359.349,228.877,359.348,228.802z"/>
				<path fill="#010101" d="M354.963,181.06c-0.003,0-0.006,0-0.011,0c0.003-0.002,0.004-0.004,0.006-0.008
					C355.035,181.057,355.037,181.06,354.963,181.06z"/>
				<path fill="#FFFFFF" d="M305.052,211.894c0.449-1.633,1.256-3.093,2.23-4.333c0.976-1.24,2.125-2.281,3.397-2.992
					c0.155-0.094,0.322-0.167,0.481-0.249l0.066-0.032l0.06-0.026l0.12-0.05c0.081-0.034,0.155-0.07,0.241-0.1
					c0.337-0.13,0.667-0.232,1-0.311c0.666-0.156,1.33-0.206,1.959-0.177c0.63,0.035,1.227,0.147,1.772,0.315
					c0.273,0.084,0.532,0.182,0.779,0.288c0.478-0.743,0.397-1.591,1.883-1.815c1.135-0.171,2.233-0.18,3.281-0.824
					c-0.317,0.597-0.879,0.909-1.515,1.111c0.853-0.248,2.04,0.287,2.913,0.693c-0.311,0.054-1.022,0.201-1.331,0.296
					c0.885,0.419,2.087,0.649,2.45,1.885c-0.192-0.087-0.826-0.425-0.988-0.518c0.877,0.639,0.7,1.896,1.54,2.474
					c-0.147-0.071-0.41-0.119-0.554-0.198c0.347,1.096,1.033,1.451,2.009,1.899c-0.629,0.356-1.525-0.066-2.032-0.471
					c0.15,0.138,0.26,0.257,0.408,0.39c-0.742,0.064-1.384-0.779-1.664-1.354c0.028,0.51,0.179,1.041,0.484,1.453
					c-1.098-0.156-1.904-0.664-2.489-1.611c-0.175,0.462,0.195,1.289,0.446,1.718c-1.256-0.322-1.594-1.679-2.271-2.5
					c0.063,0.384,0.135,0.785,0.229,1.168c-0.633-0.12-1.014-0.703-1.247-1.276c-0.179,0.391,0.294,1.814,0.508,2.209
					c-1.366-0.464-2.571-2.928-2.361-4.202l0.02-0.18c0.051-0.049,0.097-0.099,0.139-0.15c-0.228-0.085-0.464-0.164-0.711-0.229
					c-0.533-0.14-1.109-0.223-1.71-0.233c-0.601-0.002-1.227,0.071-1.847,0.244c-0.31,0.086-0.622,0.198-0.919,0.327
					c-0.148,0.064-0.318,0.146-0.457,0.219c-0.147,0.083-0.299,0.157-0.443,0.252c-1.168,0.716-2.227,1.756-3.104,2.971
					c-0.878,1.213-1.579,2.628-1.925,4.133c-0.165,0.752-0.236,1.526-0.168,2.282c0.026,0.186,0.038,0.376,0.082,0.56
					c0.02,0.092,0.034,0.185,0.057,0.275l0.077,0.271c0.022,0.09,0.057,0.178,0.088,0.264c0.034,0.087,0.063,0.176,0.1,0.262
					c0.082,0.164,0.152,0.345,0.246,0.488c0.045,0.077,0.084,0.149,0.132,0.229l0.176,0.252l0.088,0.127
					c-0.023-0.035,0-0.002-0.002-0.006l0.011,0.014l0.023,0.028l0.045,0.056l0.182,0.223c0.255,0.285,0.515,0.566,0.807,0.811
					c0.139,0.13,0.295,0.24,0.442,0.36c0.156,0.107,0.305,0.226,0.468,0.323c0.315,0.209,0.652,0.385,0.99,0.55
					c0.685,0.319,1.402,0.559,2.134,0.719c0.73,0.165,1.471,0.255,2.204,0.292c0.733,0.04,1.459,0.022,2.168-0.033
					s1.401-0.148,2.068-0.272c0.341-0.063,0.641-0.126,0.985-0.208l0.125-0.028l0.103-0.027c0.074-0.02,0.146-0.037,0.221-0.061
					c0.147-0.042,0.296-0.091,0.443-0.14c0.593-0.203,1.177-0.438,1.744-0.668c1.134-0.463,2.209-0.9,3.216-1.216
					c1.006-0.316,1.951-0.512,2.785-0.552c0.778-0.038,1.438,0.062,1.912,0.202c2.986-2.537,6.457-1.977,9.936-3.009
					c1.532-0.455,3.227-1.276,4.426-2.376c0.389-0.355,1.624-1.707,1.518-2.253c-0.184-0.925-1.153-0.653-1.646,0.007
					c-0.313-1.447,2.779-1.259,3.062-2.864c-0.913-0.127-2.466-0.879-0.949-1.745c-0.434,1.62,2.056-0.177,2.273-1.16
					c0.444-2.012-1.677-2.16-2.025-0.418c-0.42-2.95,4.498-1.952,3.873-4.764c-0.911-0.411-1.709,0.376-1.62,1.328
					c-0.475-1.631,0.399-2.648,2.119-2.86c-0.931,0.044-1.541-0.543-1.824-1.418c0.693,0.597,1.723,0.415,2.256-0.221
					c-0.517-0.128-0.74-0.295-1.101-0.622c0.871,0.315,2.425-0.367,1.705-1.554c-0.6-0.987-2.022-0.142-2.13,0.791
					c-0.057-0.967,0.666-1.67,1.426-2.096c-1.381-0.185-2.404,0.429-3.283,1.477c0.321-1.179,1.461-2.061,2.747-2.013
					c-1.241,0.021-5.532-1.411-2.646-2.652c-0.188,1.762,2.532,0.622,3.21,0.12c1.066-0.789,1.478-2.144,2.612-2.798
					c-0.699-0.044-2.038-0.694-1.009-1.316c0.212,1.807,3.709-1.633,4.611-1.55c-0.813-0.364-1.912,0.068-2.647-0.481
					c-0.715-0.532-0.98-1.996,0.207-1.973c-1.263,1.709,2.241,1.511,2.965,1.433c1.164-0.124,2.774-0.406,3.748,0.397
					c-0.381-0.554-0.986-0.902-1.562-1.221c0.845,0.125,1.528,0.222,2.293,0.646c0.789,0.439,1.267,1.225,2.27,1.081
					c-0.311-0.352-0.672-0.737-0.978-1.116c0.922,0.587,1.968,0.814,2.84,1.511c-0.319-0.847-1.535-1.142-2.017-2.105
					c1.266,0.905,3.61,1.168,4.074,2.947c0.573-0.242,0.586-0.895,0.389-1.487c0.775,0.891,1.114,1.665,0.209,2.626l0.026-0.025
					c1.907-0.134,2.582,0.794,3.971,1.794c1.17,0.843,3.463,0.632,4.273,1.636c0.896,1.109-0.349,3.045-0.977,3.867
					c-1.144,1.497-2.337,0.449-3.883,1.339c1.312-0.315,2.388-0.398,2.711,0.789c0.301,1.103-0.401,1.892,0.71,2.983
					c-1.02,0.087-1.068-0.856-1.596-1.155c0.048,0.445,0.756,1.752,1.023,2.125c-0.641-0.443-1.574-1.678-1.955-2.304
					c-0.137,0.316-0.592,0.383-0.516,1.097c-0.102-0.179-0.353-0.396-0.393-0.457c0.018,0.314-0.049,0.653-0.011,0.975
					c-0.134-1.04-2-2.923-3.184-2.22c-1.256,0.748,1.498,2.439,2.327,2.563c-0.847,0.021-1.605-0.063-2.391-0.212
					c0.472,0.833,1.121,1.405,2.083,1.525c-0.402-0.036-0.782-0.07-1.164-0.173c0.578,0.843,1.286,1.309,2.291,1.524
					c-1.067,0.66-1.736-0.505-2.724-0.594c1.219,0.935,1.46,1.887,1.406,3.407c0.26,0.416,0.408,0.874,0.329,1.352
					c-0.336-0.402-0.695-0.755-1.124-1.027c0.571,0.524,0.76,1.519,0.689,2.281c-0.128-0.125-0.283-0.251-0.441-0.375
					c0.955,1.031,1.062,2.739,0.465,3.962c-0.467-0.457-0.83-1.129-1.428-1.492c0.318,0.681,0.374,1.444,0.223,2.181
					c-0.19-0.565-0.552-1.263-1.217-1.405c0.479,0.759,1.018,3.378-0.331,3.474c-0.024-0.799-0.253-1.595-0.612-2.309
					c0.692,3.504-1.173,5.883-2.069,8.977c-0.42,1.45-1.351,2.758-1.74,4.202c-0.435,1.612-0.042,3.157,0.308,4.716
					c0.387,1.727,1.121,2.679,1.896,4.299c1.179,2.459,3.008,0.59,4.2,1.434c1.229,0.871,0.807,2.053,0.307,2.663
					c-0.525,0.644-1.671,0.219-2.304,0.052c-1.646-0.434-2.816-0.575-4.507-0.874c-0.676-0.119-1.557-0.292-2.049-0.868
					c-0.521-0.608-0.515-1.435-0.722-2.196c-0.178-0.652-0.574-1.142-0.712-1.849c-0.157-0.806,0.126-1.683-0.123-2.442
					c-0.187,0.126-0.54,0.184-0.684,0.275c0.115-0.29,0.086-0.692,0.175-0.972c-0.09,0.133-0.286,0.335-0.391,0.482
					c0.176-1.181-0.535-2.472-0.842-3.576c-0.182,0.135-0.368,0.106-0.579,0.361c0.087-0.256,0.014-0.514,0.073-0.753
					c-0.22,0.174-0.452,0.233-0.664,0.39c0.295-0.438,0.274-0.745,0.351-1.233c-0.629,0.874-2.12,0.062-2.978,0.685
					c-0.709,0.516-1.018,1.798-1.098,2.583c-0.1,0.957,0.153,2.101,0.411,2.968c0.287,0.968,1.073,1.502,1.344,2.444
					c0.858-0.207,3.394-0.467,2.743,1.208c1.393-0.565,2.506,2.44,0.008,2.598c-1.569,0.099-3.392-0.145-5.02-0.205
					c-1.49-0.055-3.27,0.146-3.868-1.434c-0.494-1.307-0.086-3.364-0.142-4.8c-0.15,0.069-0.415,0.088-0.581,0.179
					c0.089-0.186,0.088-0.589,0.168-0.771c-0.188,0.118-0.43,0.172-0.584,0.253c1.111-1.405-0.565-3.242-0.538-4.885
					c-0.247,0.133-0.779,0.222-0.997,0.379c0.222-0.328,0.321-0.758,0.486-1.076c-0.32,0.231-0.711,0.464-0.98,0.693
					c0.445-0.319,0.646-0.793,0.563-1.331c-0.904,0.405-2.085,0.135-3.038,0.007c-0.01,0.028-0.018,0.055-0.025,0.083
					c-0.1,0.13,0.548,1.688,0.529,2.05c-0.029,0.581-0.32,1.607-0.518,2.15c-0.448,1.236-1.551,2.079-2.865,2.461
					c-0.517,0.149-2.06-0.081-2.265,0.609c-0.229,0.77,1.175,1.426,1.495,1.846c0.973,1.28,1.878,1.366,3.148,1.768
					c0.521,0.164,2.535-0.309,2.613,1.228c0.045,0.895-2.242,1.076-2.842,1.076c-1.576-0.002-3.325,0.24-4.687-0.461
					c-2.571-1.324-1.807-5.768-4.905-6.143c0.165-0.082,0.359-0.255,0.542-0.341c-0.281,0.031-0.567-0.016-0.849,0.013
					c0.331-0.203,0.77-0.475,1.003-0.52c-0.309,0.013-0.629-0.032-0.929-0.023c1.074-0.529,3.586-0.306,3.452-1.901
					c-0.053-0.63-0.828-1.508-1.514-1.563c-0.998-0.08-1.019,0.595-1.459,1.232c-1.562,2.253-4.885,5.768-7.928,3.271
					c0.942,1.103,0.572,2.688,1.196,3.899c0.743,1.439,3.381,0.881,3.864,2.383c0.691,2.151-6.002,3.736-7.067,1.307
					c-0.12,0.172-0.88-0.083-0.981,0.09c0.09-0.691,0.197-1.434,0.374-2.126c-0.267,0.143-0.718,0.193-0.996,0.381
					c0.115-0.449,0.324-0.908,0.589-1.3c-0.41,0.196-0.797,0.417-1.116,0.769c-0.087-1.029,1.053-1.523,1.234-2.628
					c0.162-0.987,0.281-2.423,0.189-3.364c-0.529-0.063-1.087,0.165-1.508,0.376c0.077-0.495,0.344-0.909,0.775-1.193
					c-0.335,0.073-0.725,0.002-1.059,0.066c0.402-0.409,0.433-0.58,1.059-0.617c-0.454-0.184-0.774-0.353-1.292-0.31
					c0.706-0.775,2.359,0.039,3.472-0.616c1.274-0.751,1.831-2.133,2.284-3.458c0.509-1.487,0.943-3.184,1.753-4.625
					c-0.111-0.007-0.227-0.012-0.353-0.012c-0.604,0.004-1.388,0.123-2.302,0.37c-0.916,0.245-1.952,0.615-3.116,1.037
					c-0.583,0.209-1.199,0.43-1.873,0.63c-0.17,0.048-0.341,0.097-0.521,0.14c-0.087,0.024-0.181,0.043-0.272,0.063l-0.146,0.031
					l-0.126,0.024c-0.326,0.062-0.71,0.128-1.066,0.178c-0.726,0.105-1.476,0.176-2.247,0.203c-0.771,0.028-1.561,0.014-2.363-0.062
					c-0.803-0.074-1.617-0.207-2.425-0.424c-0.809-0.211-1.61-0.515-2.375-0.911c-0.38-0.205-0.756-0.421-1.109-0.678
					c-0.181-0.12-0.348-0.263-0.522-0.393c-0.164-0.146-0.336-0.28-0.49-0.435c-0.324-0.296-0.61-0.629-0.887-0.967l-0.196-0.264
					l-0.112-0.151l-0.083-0.129l-0.166-0.26c-0.056-0.097-0.111-0.206-0.167-0.309c-0.432-0.816-0.629-1.699-0.682-2.578
					C304.718,213.575,304.837,212.711,305.052,211.894z"/>
				<path fill="#FFFFFF" d="M322.332,201.582c-0.002,0.002-0.005,0.003-0.009,0.005c0.002-0.003,0.005-0.007,0.007-0.012
					C322.347,201.54,322.348,201.542,322.332,201.582z"/>
			</g>
			<path fill="#FFFFFF" d="M381.993,241.299c0,0-27.69-14.701-69.115,1.811C312.878,243.109,349.755,231.419,381.993,241.299z"/>
			<path fill="#FFFFFF" d="M379.765,244.042c0,0-24.493-9.798-50.807-2.939C328.958,241.103,354.852,231.865,379.765,244.042z"/>
			<path fill="#FFFFFF" d="M377.07,191.852c-0.48,0.095-0.666-0.205-0.678-0.512c-0.004-0.065,0.126-0.827-0.23-0.717
				c-0.167,0.051,0.085,0.896,0.128,0.959c0.208,0.312,0.364,0.35,0.78,0.282"/>
		</g>
	</g>
	<g>
		<g>
			<path fill="#FFFFFF" d="M294.69,247.971l0.47,6.999h-0.47c-0.627-2.091-1.523-3.597-2.686-4.52
				c-1.163-0.921-2.555-1.382-4.175-1.382c-1.373,0-2.611,0.347-3.715,1.04c-1.104,0.692-1.971,1.796-2.598,3.313
				c-0.627,1.516-0.94,3.404-0.94,5.665c0,1.856,0.296,3.467,0.891,4.833c0.595,1.365,1.494,2.414,2.696,3.146
				c1.203,0.732,2.568,1.099,4.097,1.099c1.333,0,2.512-0.288,3.539-0.862c1.025-0.576,2.146-1.712,3.362-3.411l0.471,0.313
				c-1.033,1.831-2.235,3.17-3.607,4.019c-1.372,0.85-3.006,1.274-4.901,1.274c-3.411,0-6.051-1.268-7.919-3.802
				c-1.398-1.869-2.098-4.084-2.098-6.646c0-2.052,0.46-3.937,1.382-5.655c0.921-1.719,2.189-3.052,3.803-4
				c1.614-0.946,3.375-1.421,5.283-1.421c1.49,0,2.96,0.366,4.41,1.098c0.418,0.223,0.719,0.334,0.902,0.334
				c0.274,0,0.516-0.091,0.725-0.274c0.261-0.274,0.444-0.66,0.549-1.157H294.69L294.69,247.971z"/>
			<path fill="#FFFFFF" d="M304.472,254.715c2.104,0,3.796,0.797,5.078,2.392c1.084,1.372,1.627,2.94,1.627,4.705
				c0,1.255-0.3,2.519-0.902,3.793c-0.601,1.274-1.425,2.234-2.47,2.882c-1.046,0.647-2.208,0.971-3.49,0.971
				c-2.091,0-3.757-0.837-4.999-2.51c-1.046-1.411-1.568-2.993-1.568-4.744c0-1.268,0.317-2.532,0.951-3.794
				c0.634-1.26,1.467-2.191,2.5-2.793C302.231,255.016,303.322,254.715,304.472,254.715z M304.002,255.695
				c-0.536,0-1.076,0.16-1.618,0.479c-0.542,0.321-0.98,0.88-1.313,1.677c-0.333,0.797-0.5,1.822-0.5,3.078
				c0,2.025,0.402,3.773,1.205,5.243c0.805,1.471,1.866,2.206,3.186,2.206c0.98,0,1.79-0.405,2.431-1.216
				c0.64-0.81,0.961-2.202,0.961-4.176c0-2.47-0.536-4.411-1.608-5.822C306.028,256.186,305.113,255.695,304.002,255.695z"/>
			<path fill="#FFFFFF" d="M317.273,257.655c1.634-1.96,3.189-2.94,4.666-2.94c0.757,0,1.408,0.189,1.95,0.568
				s0.977,1.007,1.304,1.882c0.222,0.602,0.333,1.528,0.333,2.784v5.939c0,0.876,0.072,1.47,0.216,1.784
				c0.117,0.248,0.3,0.444,0.549,0.588s0.706,0.216,1.372,0.216v0.548h-6.881v-0.548h0.294c0.641,0,1.091-0.098,1.353-0.294
				c0.261-0.196,0.438-0.483,0.529-0.862c0.052-0.157,0.078-0.635,0.078-1.432v-5.685c0-1.268-0.167-2.188-0.5-2.765
				c-0.333-0.574-0.886-0.862-1.656-0.862c-1.203,0-2.405,0.659-3.608,1.979v7.332c0,0.94,0.059,1.522,0.176,1.744
				c0.145,0.287,0.336,0.5,0.579,0.637c0.241,0.138,0.748,0.206,1.519,0.206v0.549h-6.881v-0.549h0.294
				c0.718,0,1.199-0.18,1.441-0.539c0.241-0.359,0.363-1.042,0.363-2.049v-5.155c0-1.673-0.036-2.691-0.108-3.059
				c-0.072-0.366-0.186-0.614-0.343-0.745c-0.157-0.13-0.366-0.195-0.627-0.195c-0.288,0-0.628,0.078-1.02,0.235l-0.235-0.549
				l4.195-1.706h0.647V257.655L317.273,257.655z"/>
			<path fill="#FFFFFF" d="M337.759,254.715v4.744h-0.509c-0.379-1.489-0.87-2.503-1.471-3.038
				c-0.601-0.536-1.372-0.805-2.313-0.805c-0.706,0-1.274,0.186-1.706,0.559c-0.431,0.372-0.646,0.788-0.646,1.245
				c0,0.562,0.163,1.046,0.49,1.45c0.301,0.419,0.935,0.863,1.902,1.334l2.215,1.059c2.052,1.007,3.078,2.325,3.078,3.958
				c0,1.269-0.477,2.291-1.431,3.069c-0.954,0.777-2.026,1.167-3.215,1.167c-0.85,0-1.817-0.158-2.901-0.471
				c-0.34-0.092-0.614-0.138-0.823-0.138c-0.235,0-0.418,0.13-0.549,0.393h-0.509v-4.96h0.509c0.288,1.412,0.831,2.477,1.627,3.194
				c0.797,0.72,1.692,1.078,2.686,1.078c0.692,0,1.261-0.204,1.705-0.617c0.444-0.41,0.667-0.903,0.667-1.479
				c0-0.692-0.246-1.276-0.736-1.755c-0.49-0.477-1.47-1.078-2.941-1.803c-1.47-0.725-2.434-1.382-2.891-1.97
				c-0.458-0.576-0.686-1.308-0.686-2.196c0-1.137,0.392-2.091,1.176-2.862s1.804-1.156,3.058-1.156c0.536,0,1.196,0.117,1.98,0.353
				c0.51,0.158,0.856,0.235,1.04,0.235c0.157,0,0.28-0.036,0.372-0.108c0.092-0.071,0.196-0.232,0.314-0.479H337.759
				L337.759,254.715z"/>
			<path fill="#FFFFFF" d="M345.66,254.715v11.174c0,0.863,0.062,1.438,0.186,1.725c0.124,0.289,0.311,0.504,0.559,0.647
				s0.705,0.216,1.373,0.216v0.548h-6.764v-0.548c0.68,0,1.137-0.066,1.372-0.195c0.235-0.132,0.422-0.348,0.559-0.647
				c0.138-0.302,0.207-0.882,0.207-1.745v-5.352c0-1.517-0.047-2.496-0.139-2.94c-0.077-0.326-0.192-0.553-0.343-0.677
				c-0.15-0.123-0.356-0.186-0.617-0.186c-0.287,0-0.635,0.078-1.039,0.234l-0.216-0.549l4.195-1.705H345.66L345.66,254.715z
				 M344.404,247.441c0.419,0,0.777,0.151,1.079,0.451c0.301,0.301,0.45,0.667,0.45,1.098c0,0.419-0.15,0.777-0.45,1.078
				c-0.302,0.301-0.66,0.451-1.079,0.451c-0.431,0-0.797-0.15-1.098-0.451c-0.3-0.301-0.45-0.659-0.45-1.078
				c0-0.431,0.15-0.797,0.45-1.098C343.607,247.593,343.974,247.441,344.404,247.441z"/>
			<path fill="#FFFFFF" d="M354.266,247.441v18.447c0,0.863,0.065,1.438,0.197,1.725c0.129,0.289,0.324,0.504,0.587,0.647
				c0.262,0.144,0.752,0.216,1.47,0.216v0.548h-6.82v-0.548c0.64,0,1.077-0.066,1.313-0.195c0.235-0.132,0.418-0.348,0.549-0.647
				c0.131-0.302,0.196-0.882,0.196-1.745v-12.625c0-1.568-0.036-2.532-0.107-2.892c-0.072-0.358-0.187-0.604-0.344-0.734
				c-0.157-0.131-0.359-0.196-0.607-0.196c-0.262,0-0.595,0.079-0.999,0.234l-0.256-0.528l4.156-1.706H354.266L354.266,247.441z"/>
			<path fill="#FFFFFF" d="M362.91,254.715v11.174c0,0.863,0.063,1.438,0.187,1.725c0.125,0.289,0.311,0.504,0.559,0.647
				s0.705,0.216,1.373,0.216v0.548h-6.763v-0.548c0.678,0,1.136-0.066,1.371-0.195c0.235-0.132,0.422-0.348,0.56-0.647
				c0.137-0.302,0.206-0.882,0.206-1.745v-5.352c0-1.517-0.047-2.496-0.138-2.94c-0.079-0.326-0.194-0.553-0.344-0.677
				c-0.149-0.123-0.356-0.186-0.617-0.186c-0.287,0-0.634,0.078-1.038,0.234l-0.217-0.549l4.195-1.705H362.91L362.91,254.715z
				 M361.656,247.441c0.419,0,0.777,0.151,1.078,0.451c0.301,0.301,0.45,0.667,0.45,1.098c0,0.419-0.15,0.777-0.45,1.078
				c-0.301,0.301-0.659,0.451-1.078,0.451c-0.431,0-0.798-0.15-1.099-0.451s-0.45-0.659-0.45-1.078c0-0.431,0.149-0.797,0.45-1.098
				C360.859,247.593,361.226,247.441,361.656,247.441z"/>
			<path fill="#FFFFFF" d="M378.928,255.126v8.431c0,1.607,0.038,2.591,0.117,2.949c0.078,0.359,0.199,0.607,0.362,0.746
				c0.164,0.137,0.356,0.205,0.579,0.205c0.313,0,0.666-0.085,1.059-0.255l0.215,0.529l-4.156,1.726h-0.686v-2.94
				c-1.189,1.294-2.098,2.106-2.725,2.44c-0.628,0.333-1.287,0.5-1.98,0.5c-0.783,0-1.461-0.226-2.028-0.677
				c-0.568-0.45-0.964-1.032-1.187-1.744c-0.222-0.713-0.333-1.715-0.333-3.009v-6.195c0-0.667-0.072-1.123-0.216-1.373
				c-0.144-0.247-0.356-0.44-0.637-0.577c-0.281-0.138-0.781-0.199-1.5-0.186v-0.57h4.861v9.293c0,1.308,0.227,2.159,0.677,2.558
				c0.451,0.399,0.996,0.599,1.637,0.599c0.432,0,0.922-0.134,1.471-0.401c0.549-0.269,1.201-0.788,1.961-1.56v-7.88
				c0-0.784-0.145-1.317-0.433-1.599c-0.287-0.28-0.881-0.428-1.783-0.44v-0.569H378.928L378.928,255.126z"/>
			<path fill="#FFFFFF" d="M386.415,257.675c1.007-1.006,1.602-1.588,1.784-1.744c0.458-0.379,0.951-0.677,1.479-0.892
				c0.53-0.217,1.05-0.324,1.56-0.324c0.875,0,1.627,0.255,2.254,0.766c0.628,0.508,1.046,1.24,1.255,2.194
				c1.046-1.216,1.928-2.013,2.646-2.392s1.457-0.568,2.215-0.568c0.732,0,1.385,0.189,1.961,0.568c0.574,0.379,1.026,1,1.352,1.861
				c0.224,0.59,0.334,1.511,0.334,2.765v5.979c0,0.863,0.065,1.457,0.196,1.784c0.104,0.222,0.294,0.411,0.568,0.568
				s0.719,0.235,1.333,0.235v0.548h-6.861v-0.548h0.294c0.601,0,1.065-0.118,1.392-0.354c0.235-0.156,0.405-0.412,0.51-0.765
				c0.039-0.169,0.059-0.66,0.059-1.47v-5.979c0-1.136-0.137-1.934-0.412-2.392c-0.391-0.652-1.024-0.979-1.901-0.979
				c-0.536,0-1.075,0.134-1.617,0.402c-0.543,0.268-1.199,0.767-1.971,1.5l-0.019,0.155l0.019,0.668v6.625
				c0,0.954,0.056,1.546,0.168,1.773c0.11,0.229,0.313,0.422,0.607,0.579s0.794,0.235,1.499,0.235v0.548h-7.037v-0.548
				c0.771,0,1.3-0.091,1.587-0.275c0.287-0.182,0.491-0.456,0.608-0.823c0.052-0.169,0.078-0.666,0.078-1.489v-5.979
				c0-1.136-0.17-1.953-0.509-2.449c-0.445-0.641-1.066-0.961-1.863-0.961c-0.549,0-1.091,0.144-1.627,0.431
				c-0.837,0.444-1.483,0.949-1.94,1.511v7.448c0,0.902,0.063,1.49,0.186,1.765c0.125,0.275,0.312,0.479,0.56,0.617
				c0.249,0.138,0.751,0.206,1.509,0.206v0.549h-6.86v-0.549c0.641,0,1.084-0.068,1.333-0.206c0.248-0.138,0.438-0.353,0.568-0.646
				c0.131-0.295,0.196-0.872,0.196-1.735v-5.312c0-1.53-0.046-2.517-0.137-2.962c-0.066-0.339-0.175-0.57-0.324-0.695
				c-0.15-0.123-0.356-0.186-0.617-0.186c-0.289,0-0.628,0.078-1.02,0.234l-0.235-0.548l4.195-1.706h0.646V257.675L386.415,257.675z
				"/>
		</g>
		<g>
			<path fill="#FFFFFF" d="M297.894,278.081h-3.19v-5.416h0.396v5.02h2.794V278.081z"/>
			<path fill="#FFFFFF" d="M302.884,278.081h-3.912v-5.416h3.778v0.396h-3.383v2.003h3.17v0.396h-3.17v2.225h3.517V278.081z"/>
			<path fill="#FFFFFF" d="M308.38,278.081h-0.475l-0.663-1.741h-2.666c-0.095,0.274-0.199,0.563-0.312,0.868
				c-0.112,0.306-0.219,0.596-0.321,0.873h-0.421c0.178-0.468,0.354-0.926,0.527-1.374c0.173-0.449,0.345-0.896,0.517-1.338
				c0.172-0.444,0.343-0.89,0.517-1.338c0.173-0.45,0.349-0.906,0.527-1.371h0.559L308.38,278.081z M307.128,276.029l-1.256-3.014
				l-1.191,3.014H307.128z"/>
			<path fill="#FFFFFF" d="M313.593,275.331c0,1.833-0.912,2.75-2.735,2.75h-1.638v-5.41h1.638c0.913,0,1.597,0.22,2.052,0.659
				C313.366,273.771,313.593,274.438,313.593,275.331z M313.172,275.331c0-0.355-0.036-0.675-0.106-0.955
				c-0.071-0.279-0.196-0.518-0.374-0.714s-0.416-0.346-0.715-0.447c-0.298-0.104-0.675-0.153-1.13-0.153h-1.232v4.624h1.232
				c0.452,0,0.827-0.053,1.125-0.157c0.298-0.106,0.537-0.261,0.715-0.463c0.178-0.203,0.304-0.449,0.375-0.74
				C313.136,276.035,313.172,275.704,313.172,275.331z"/>
			<path fill="#FFFFFF" d="M318.692,278.081h-3.912v-5.416h3.779v0.396h-3.383v2.003h3.17v0.396h-3.17v2.225h3.516V278.081z"/>
			<path fill="#FFFFFF" d="M324.247,278.081h-0.435l-0.54-1.438c-0.053-0.139-0.111-0.27-0.176-0.392
				c-0.064-0.121-0.139-0.229-0.225-0.318c-0.085-0.091-0.183-0.162-0.294-0.216c-0.11-0.053-0.24-0.079-0.388-0.079h-1.895v2.443
				h-0.396v-5.416h2.438c0.228,0,0.448,0.021,0.66,0.063c0.212,0.041,0.402,0.114,0.568,0.22c0.167,0.105,0.3,0.252,0.398,0.438
				c0.099,0.187,0.148,0.425,0.148,0.715c0,0.182-0.022,0.35-0.067,0.507c-0.045,0.157-0.112,0.297-0.203,0.421
				c-0.09,0.123-0.206,0.229-0.346,0.316c-0.141,0.087-0.304,0.151-0.492,0.191c0.102,0.078,0.186,0.153,0.252,0.226
				c0.066,0.073,0.123,0.151,0.17,0.233s0.09,0.174,0.129,0.272c0.038,0.099,0.082,0.213,0.131,0.341L324.247,278.081z
				 M320.295,275.242h1.879c0.267,0,0.496-0.02,0.688-0.059c0.191-0.04,0.349-0.105,0.473-0.196c0.123-0.09,0.215-0.209,0.274-0.354
				c0.059-0.146,0.089-0.322,0.089-0.534c0-0.372-0.118-0.639-0.354-0.799c-0.236-0.159-0.588-0.239-1.056-0.239h-1.994V275.242
				L320.295,275.242z"/>
			<path fill="#FFFFFF" d="M327.442,278.18c-0.367,0-0.687-0.038-0.96-0.116c-0.274-0.077-0.503-0.188-0.69-0.331
				c-0.186-0.144-0.329-0.316-0.427-0.52c-0.099-0.202-0.157-0.43-0.173-0.685h0.391c0.04,0.243,0.113,0.446,0.222,0.608
				c0.109,0.161,0.243,0.29,0.403,0.385c0.16,0.097,0.343,0.164,0.547,0.204s0.422,0.059,0.653,0.059c0.24,0,0.458-0.025,0.65-0.076
				c0.193-0.051,0.357-0.126,0.495-0.223c0.137-0.097,0.242-0.214,0.314-0.351c0.072-0.137,0.108-0.292,0.108-0.463
				c0-0.182-0.03-0.334-0.093-0.457c-0.063-0.125-0.168-0.232-0.317-0.324c-0.148-0.092-0.343-0.176-0.586-0.248
				c-0.242-0.072-0.543-0.146-0.903-0.222c-0.296-0.066-0.552-0.142-0.764-0.229c-0.213-0.086-0.389-0.186-0.527-0.299
				c-0.138-0.113-0.24-0.244-0.306-0.391c-0.066-0.147-0.099-0.317-0.099-0.512c0-0.211,0.045-0.404,0.133-0.579
				c0.09-0.174,0.216-0.324,0.379-0.449c0.163-0.126,0.359-0.223,0.589-0.292c0.229-0.069,0.482-0.104,0.759-0.104
				s0.53,0.033,0.762,0.097c0.231,0.064,0.433,0.158,0.606,0.279c0.173,0.122,0.313,0.271,0.42,0.445
				c0.107,0.176,0.176,0.373,0.205,0.593h-0.38c-0.036-0.145-0.096-0.279-0.179-0.404c-0.083-0.126-0.189-0.234-0.319-0.325
				c-0.13-0.089-0.285-0.16-0.464-0.212c-0.18-0.052-0.385-0.076-0.616-0.076c-0.484,0-0.851,0.089-1.101,0.266
				c-0.249,0.179-0.373,0.423-0.373,0.732c0,0.143,0.023,0.266,0.069,0.371c0.046,0.105,0.125,0.2,0.235,0.285
				c0.11,0.084,0.256,0.157,0.438,0.223c0.181,0.063,0.407,0.123,0.678,0.181c0.158,0.032,0.321,0.067,0.489,0.103
				c0.169,0.037,0.333,0.08,0.492,0.13c0.16,0.049,0.313,0.109,0.458,0.183c0.146,0.071,0.271,0.161,0.378,0.267
				c0.108,0.105,0.194,0.232,0.258,0.378c0.064,0.147,0.097,0.321,0.097,0.522c0,0.23-0.049,0.442-0.146,0.635
				c-0.097,0.193-0.232,0.36-0.405,0.5s-0.379,0.249-0.618,0.326C327.982,278.142,327.722,278.18,327.442,278.18z"/>
			<path fill="#FFFFFF" d="M334.717,278.081h-0.4v-2.696h-3.338v2.696h-0.396v-5.416h0.396v2.324h3.338v-2.324h0.4V278.081z"/>
			<path fill="#FFFFFF" d="M336.696,278.081H336.3v-5.416h0.396V278.081z"/>
			<path fill="#FFFFFF" d="M338.268,272.665h1.97c0.263,0,0.517,0.021,0.76,0.064c0.244,0.043,0.459,0.121,0.646,0.234
				c0.187,0.114,0.334,0.269,0.445,0.463c0.109,0.195,0.166,0.442,0.166,0.743c0,0.529-0.168,0.934-0.503,1.211
				c-0.335,0.276-0.823,0.415-1.466,0.415h-1.623v2.285h-0.396V272.665L338.268,272.665z M338.664,275.4h1.638
				c0.277,0,0.513-0.025,0.708-0.078c0.194-0.054,0.354-0.132,0.478-0.233c0.123-0.103,0.214-0.229,0.269-0.378
				c0.057-0.15,0.085-0.324,0.085-0.522c0-0.24-0.042-0.435-0.126-0.584c-0.085-0.147-0.198-0.263-0.342-0.343
				c-0.144-0.081-0.309-0.135-0.497-0.161c-0.188-0.026-0.385-0.039-0.593-0.039h-1.618L338.664,275.4L338.664,275.4z"/>
			<path fill="#FFFFFF" d="M352.216,275.331c0,1.833-0.912,2.75-2.735,2.75h-1.636v-5.41h1.636c0.913,0,1.598,0.22,2.054,0.659
				C351.988,273.771,352.216,274.438,352.216,275.331z M351.796,275.331c0-0.355-0.035-0.675-0.107-0.955
				c-0.07-0.279-0.195-0.518-0.372-0.714c-0.179-0.196-0.417-0.346-0.716-0.447c-0.299-0.104-0.675-0.153-1.13-0.153h-1.23v4.624
				h1.23c0.452,0,0.827-0.053,1.126-0.157c0.299-0.106,0.536-0.261,0.714-0.463c0.179-0.203,0.304-0.449,0.376-0.74
				C351.759,276.035,351.796,275.704,351.796,275.331z"/>
			<path fill="#FFFFFF" d="M357.315,278.081h-3.913v-5.416h3.779v0.396h-3.383v2.003h3.17v0.396h-3.17v2.225h3.517V278.081z"/>
			<path fill="#FFFFFF" d="M362.756,272.665l-2.122,5.416h-0.509l-2.122-5.416h0.439l1.939,4.922l1.938-4.922H362.756z"/>
			<path fill="#FFFFFF" d="M367.573,278.081h-3.912v-5.416h3.778v0.396h-3.383v2.003h3.171v0.396h-3.171v2.225h3.517V278.081
				L367.573,278.081z"/>
			<path fill="#FFFFFF" d="M371.99,278.081h-3.189v-5.416h0.396v5.02h2.794V278.081z"/>
			<path fill="#FFFFFF" d="M375.354,272.566c0.37,0,0.712,0.065,1.024,0.198c0.313,0.131,0.583,0.319,0.809,0.563
				c0.227,0.244,0.402,0.538,0.529,0.881s0.19,0.725,0.19,1.147c0,0.419-0.063,0.801-0.188,1.147
				c-0.125,0.346-0.302,0.644-0.526,0.893c-0.227,0.249-0.495,0.442-0.807,0.579c-0.313,0.136-0.656,0.204-1.031,0.204
				c-0.376,0-0.721-0.068-1.034-0.204c-0.313-0.138-0.582-0.329-0.809-0.577c-0.226-0.248-0.401-0.543-0.527-0.89
				c-0.124-0.347-0.188-0.73-0.188-1.152c0-0.426,0.063-0.81,0.191-1.152c0.126-0.344,0.305-0.636,0.531-0.878
				c0.228-0.243,0.497-0.431,0.81-0.561C374.64,272.632,374.982,272.566,375.354,272.566z M375.35,277.784
				c0.31,0,0.596-0.053,0.858-0.16c0.262-0.107,0.488-0.266,0.68-0.474c0.191-0.206,0.339-0.461,0.445-0.764
				c0.104-0.302,0.157-0.646,0.157-1.03c0-0.39-0.054-0.732-0.16-1.029c-0.107-0.296-0.256-0.547-0.445-0.75
				c-0.19-0.202-0.414-0.355-0.673-0.459c-0.259-0.104-0.541-0.156-0.848-0.156c-0.313,0-0.602,0.052-0.863,0.158
				c-0.262,0.105-0.489,0.26-0.68,0.463c-0.191,0.202-0.341,0.452-0.448,0.749s-0.16,0.638-0.16,1.024
				c0,0.385,0.052,0.729,0.158,1.03c0.104,0.303,0.253,0.558,0.442,0.764c0.189,0.208,0.415,0.366,0.678,0.474
				S375.039,277.784,375.35,277.784z"/>
			<path fill="#FFFFFF" d="M379.049,272.665h1.97c0.263,0,0.517,0.021,0.761,0.064c0.243,0.043,0.459,0.121,0.645,0.234
				c0.187,0.114,0.336,0.269,0.445,0.463c0.11,0.195,0.167,0.442,0.167,0.743c0,0.529-0.168,0.934-0.503,1.211
				c-0.334,0.276-0.823,0.415-1.466,0.415h-1.622v2.285h-0.396V272.665z M379.444,275.4h1.638c0.276,0,0.512-0.025,0.707-0.078
				c0.195-0.054,0.354-0.132,0.478-0.233c0.124-0.103,0.214-0.229,0.269-0.378c0.057-0.15,0.085-0.324,0.085-0.522
				c0-0.24-0.042-0.435-0.127-0.584c-0.083-0.147-0.197-0.263-0.341-0.343c-0.143-0.081-0.309-0.135-0.497-0.161
				c-0.188-0.026-0.386-0.039-0.594-0.039h-1.617V275.4L379.444,275.4z"/>
			<path fill="#FFFFFF" d="M389.218,278.081h-0.396v-4.768l-1.949,4.768h-0.416l-1.944-4.768v4.768h-0.395v-5.416h0.573l1.974,4.922
				l1.988-4.922h0.564V278.081L389.218,278.081z"/>
			<path fill="#FFFFFF" d="M394.505,278.081h-3.913v-5.416h3.779v0.396h-3.383v2.003h3.171v0.396h-3.171v2.225h3.517V278.081z"/>
			<path fill="#FFFFFF" d="M399.891,278.081h-0.519l-3.304-4.946v4.946h-0.396v-5.416h0.544l3.279,4.937v-4.937h0.396
				L399.891,278.081L399.891,278.081z"/>
			<path fill="#FFFFFF" d="M404.991,273.062h-1.895v5.02h-0.396v-5.02h-1.875v-0.396h4.165V273.062L404.991,273.062z"/>
		</g>
	</g>
</g>
</svg>
