<?xml version="1.0" encoding="utf-8"?>
<!-- Generator: Adobe Illustrator 16.0.0, SVG Export Plug-In . SVG Version: 6.00 Build 0)  -->
<!DOCTYPE svg PUBLIC "-//W3C//DTD SVG 1.1//EN" "http://www.w3.org/Graphics/SVG/1.1/DTD/svg11.dtd">
<svg version="1.1" id="Layer_1" xmlns="http://www.w3.org/2000/svg" xmlns:xlink="http://www.w3.org/1999/xlink" x="0px" y="0px"
	 width="100px" height="100px" viewBox="0 0 100 100" enable-background="new 0 0 100 100" xml:space="preserve">
<path opacity="0.9" fill="#FFFFFF" d="M90.795,26.794c-2.894,1.284-6.005,2.152-9.267,2.54c3.331-1.996,5.893-5.157,7.095-8.927
	c-3.115,1.85-6.566,3.194-10.246,3.918c-2.943-3.138-7.139-5.097-11.778-5.097c-8.912,0-16.138,7.226-16.138,16.137
	c0,1.266,0.143,2.496,0.417,3.676c-13.412-0.67-25.301-7.094-33.262-16.862c-1.386,2.387-2.182,5.158-2.182,8.114
	c0,5.599,2.848,10.54,7.175,13.432c-2.643-0.081-5.131-0.812-7.307-2.02v0.205c0,7.818,5.563,14.337,12.943,15.821
	c-1.352,0.369-2.784,0.572-4.251,0.572c-1.038,0-2.051-0.104-3.037-0.295c2.053,6.408,8.012,11.075,15.072,11.209
	c-5.519,4.323-12.476,6.907-20.042,6.907c-1.3,0-2.583-0.077-3.846-0.229c7.138,4.574,15.622,7.252,24.74,7.252
	c29.681,0,45.91-24.587,45.91-45.915c0-0.695-0.02-1.391-0.045-2.088C85.896,32.874,88.627,30.032,90.795,26.794z"/>
</svg>
