<?xml version="1.0" encoding="utf-8"?>
<!-- Generator: Adobe Illustrator 16.0.0, SVG Export Plug-In . SVG Version: 6.00 Build 0)  -->
<!DOCTYPE svg PUBLIC "-//W3C//DTD SVG 1.1//EN" "http://www.w3.org/Graphics/SVG/1.1/DTD/svg11.dtd">
<svg version="1.1" id="Layer_1" xmlns="http://www.w3.org/2000/svg" xmlns:xlink="http://www.w3.org/1999/xlink" x="0px" y="0px"
	 width="130px" height="100px" viewBox="0 0 130 100" enable-background="new 0 0 130 100" xml:space="preserve">
<g>
	<g>
		<g>
			<g>
				<path fill="#FFFFFF" d="M94.839,19.938c0.069,0.005,0.14,0.01,0.206,0.019C94.973,19.952,94.908,19.947,94.839,19.938z"/>
				<path fill="#FFFFFF" d="M83.013,48.101c0.005-0.004,0.005-0.004,0.009-0.009c-0.004,0.005-0.004,0.005-0.004,0.005
					C83.018,48.173,83.013,48.173,83.013,48.101z"/>
				<path fill="#FFFFFF" d="M78.715,1.27c-0.005,0-0.007,0-0.012,0c0,0,0.005-0.004,0.005-0.009
					C78.784,1.266,78.784,1.27,78.715,1.27z"/>
				<path fill="#FFFFFF" d="M29.757,31.515c0.438-1.603,1.231-3.038,2.186-4.249c0.959-1.219,2.087-2.243,3.333-2.942
					c0.153-0.086,0.317-0.163,0.473-0.239l0.063-0.034l0.06-0.024l0.116-0.052c0.078-0.033,0.152-0.067,0.237-0.095
					c0.331-0.13,0.655-0.23,0.982-0.307c0.654-0.153,1.303-0.201,1.92-0.172c0.62,0.033,1.206,0.144,1.741,0.311
					c0.268,0.077,0.522,0.172,0.764,0.282c0.471-0.731,0.39-1.564,1.847-1.785c1.113-0.167,2.19-0.172,3.217-0.804
					c-0.312,0.583-0.863,0.89-1.485,1.086c0.838-0.239,2,0.282,2.857,0.679c-0.305,0.057-1.002,0.201-1.306,0.292
					c0.871,0.412,2.049,0.636,2.404,1.851c-0.187-0.086-0.811-0.42-0.967-0.512c0.858,0.627,0.685,1.861,1.509,2.425
					c-0.146-0.067-0.402-0.115-0.545-0.191c0.342,1.071,1.014,1.421,1.971,1.865c-0.619,0.345-1.499-0.067-1.994-0.464
					c0.146,0.134,0.256,0.249,0.4,0.383c-0.725,0.058-1.357-0.765-1.63-1.33c0.028,0.502,0.176,1.024,0.472,1.426
					c-1.077-0.153-1.864-0.65-2.438-1.584c-0.172,0.46,0.191,1.269,0.438,1.684c-1.232-0.311-1.565-1.641-2.23-2.449
					c0.066,0.377,0.137,0.77,0.226,1.143c-0.621-0.115-0.994-0.684-1.222-1.249c-0.178,0.383,0.287,1.78,0.497,2.167
					c-1.338-0.459-2.522-2.875-2.315-4.124l0.02-0.172c0.048-0.053,0.094-0.101,0.136-0.153c-0.224-0.082-0.456-0.157-0.698-0.22
					c-0.522-0.139-1.087-0.22-1.679-0.234c-0.588,0-1.197,0.072-1.809,0.239c-0.302,0.086-0.611,0.196-0.904,0.325
					c-0.144,0.063-0.309,0.144-0.448,0.21c-0.144,0.086-0.291,0.158-0.433,0.25c-1.144,0.703-2.185,1.722-3.044,2.913
					c-0.863,1.192-1.548,2.579-1.891,4.057c-0.158,0.737-0.231,1.493-0.165,2.239c0.027,0.182,0.039,0.369,0.08,0.545
					c0.02,0.091,0.032,0.182,0.057,0.273l0.073,0.263c0.023,0.091,0.056,0.172,0.089,0.263c0.032,0.086,0.06,0.168,0.098,0.254
					c0.083,0.163,0.148,0.34,0.239,0.478c0.045,0.077,0.083,0.148,0.134,0.225l0.171,0.249l0.085,0.125c-0.02-0.034,0,0-0.002-0.01
					l0.013,0.019l0.022,0.024l0.046,0.052l0.176,0.225c0.249,0.278,0.505,0.555,0.793,0.794c0.136,0.125,0.289,0.235,0.433,0.354
					c0.15,0.101,0.296,0.22,0.456,0.315c0.31,0.206,0.642,0.374,0.974,0.541c0.672,0.312,1.375,0.545,2.095,0.704
					c0.714,0.162,1.44,0.249,2.159,0.287c0.72,0.038,1.436,0.023,2.128-0.034c0.697-0.053,1.375-0.144,2.03-0.268
					c0.333-0.057,0.629-0.12,0.966-0.201l0.121-0.029l0.103-0.024c0.073-0.024,0.146-0.039,0.218-0.062
					c0.144-0.039,0.288-0.086,0.434-0.134c0.581-0.201,1.152-0.431,1.708-0.66c1.114-0.45,2.169-0.88,3.158-1.192
					c0.986-0.311,1.91-0.502,2.73-0.541c0.763-0.038,1.41,0.058,1.873,0.196c2.93-2.488,6.334-1.938,9.75-2.947
					c1.503-0.45,3.165-1.253,4.343-2.334c0.38-0.349,1.591-1.675,1.485-2.21c-0.18-0.904-1.13-0.641-1.616,0.01
					c-0.305-1.421,2.726-1.234,3.005-2.813c-0.897-0.125-2.419-0.856-0.934-1.708c-0.426,1.583,2.019-0.172,2.232-1.139
					c0.436-1.976-1.645-2.119-1.987-0.411c-0.412-2.89,4.411-1.914,3.799-4.674c-0.893-0.402-1.676,0.369-1.591,1.306
					c-0.463-1.603,0.393-2.598,2.083-2.809c-0.914,0.043-1.513-0.531-1.791-1.392c0.68,0.588,1.689,0.411,2.21-0.215
					c-0.506-0.125-0.725-0.287-1.078-0.608c0.854,0.307,2.379-0.358,1.669-1.526c-0.587-0.966-1.982-0.139-2.089,0.775
					c-0.053-0.947,0.654-1.636,1.399-2.057c-1.354-0.177-2.358,0.426-3.217,1.45c0.312-1.153,1.43-2.02,2.691-1.971
					c-1.215,0.019-5.427-1.388-2.595-2.603c-0.184,1.728,2.485,0.608,3.149,0.115c1.046-0.77,1.448-2.1,2.563-2.746
					c-0.688-0.038-1.999-0.68-0.99-1.287c0.21,1.771,3.639-1.603,4.526-1.521c-0.799-0.359-1.875,0.067-2.598-0.474
					c-0.701-0.521-0.966-1.957,0.202-1.933c-1.239,1.675,2.2,1.479,2.908,1.407c1.143-0.124,2.723-0.397,3.679,0.388
					c-0.373-0.541-0.971-0.88-1.533-1.196c0.827,0.119,1.497,0.22,2.251,0.631c0.775,0.431,1.239,1.201,2.222,1.058
					c-0.303-0.344-0.657-0.723-0.956-1.091c0.901,0.574,1.93,0.799,2.784,1.479c-0.314-0.828-1.505-1.12-1.979-2.063
					c1.239,0.89,3.545,1.144,3.997,2.89c0.563-0.235,0.574-0.88,0.383-1.459c0.761,0.875,1.093,1.631,0.203,2.579l0.024-0.024
					c1.875-0.139,2.535,0.775,3.898,1.76c1.144,0.823,3.397,0.617,4.191,1.603c0.88,1.086-0.342,2.985-0.959,3.789
					c-1.12,1.469-2.294,0.44-3.809,1.316c1.285-0.307,2.342-0.392,2.657,0.775c0.297,1.081-0.392,1.856,0.693,2.928
					c-0.994,0.082-1.04-0.842-1.561-1.134c0.047,0.435,0.743,1.717,1.006,2.081c-0.631-0.431-1.545-1.646-1.918-2.258
					c-0.134,0.311-0.581,0.378-0.507,1.076c-0.101-0.177-0.345-0.388-0.383-0.45c0.017,0.311-0.048,0.641-0.015,0.957
					c-0.129-1.019-1.961-2.866-3.124-2.177c-1.229,0.732,1.474,2.393,2.287,2.512c-0.833,0.024-1.576-0.057-2.347-0.206
					c0.462,0.818,1.103,1.378,2.04,1.498c-0.393-0.038-0.765-0.067-1.142-0.172c0.572,0.827,1.264,1.286,2.252,1.497
					c-1.048,0.646-1.706-0.497-2.675-0.588c1.199,0.923,1.436,1.856,1.383,3.344c0.251,0.411,0.396,0.861,0.325,1.325
					c-0.334-0.392-0.686-0.741-1.104-1.004c0.557,0.512,0.743,1.488,0.674,2.234c-0.124-0.12-0.277-0.244-0.43-0.364
					c0.932,1.01,1.037,2.684,0.451,3.885c-0.457-0.45-0.813-1.11-1.398-1.464c0.311,0.669,0.367,1.416,0.22,2.143
					c-0.187-0.56-0.543-1.244-1.196-1.382c0.469,0.741,1,3.315-0.325,3.411c-0.023-0.789-0.249-1.569-0.599-2.267
					c0.68,3.435-1.152,5.77-2.028,8.803c-0.415,1.425-1.329,2.707-1.708,4.123c-0.425,1.584-0.043,3.096,0.303,4.626
					c0.377,1.693,1.095,2.626,1.86,4.219c1.152,2.411,2.946,0.574,4.116,1.407c1.208,0.852,0.794,2.009,0.305,2.606
					c-0.518,0.637-1.642,0.216-2.264,0.053c-1.614-0.421-2.76-0.564-4.42-0.856c-0.665-0.12-1.526-0.287-2.01-0.852
					c-0.51-0.598-0.505-1.406-0.708-2.157c-0.172-0.637-0.564-1.114-0.698-1.813c-0.153-0.79,0.124-1.65-0.119-2.392
					c-0.182,0.125-0.532,0.182-0.67,0.268c0.115-0.283,0.082-0.68,0.172-0.952c-0.091,0.129-0.282,0.33-0.383,0.474
					c0.17-1.158-0.526-2.426-0.827-3.507c-0.178,0.134-0.361,0.1-0.57,0.354c0.086-0.254,0.015-0.502,0.075-0.741
					c-0.218,0.172-0.445,0.229-0.653,0.382c0.292-0.431,0.27-0.727,0.345-1.21c-0.617,0.861-2.077,0.062-2.921,0.674
					c-0.696,0.502-0.997,1.765-1.078,2.531c-0.096,0.938,0.153,2.062,0.404,2.913c0.285,0.952,1.055,1.474,1.318,2.397
					c0.845-0.2,3.33-0.455,2.691,1.187c1.366-0.555,2.461,2.392,0.007,2.55c-1.536,0.097-3.327-0.144-4.92-0.2
					c-1.463-0.059-3.21,0.144-3.799-1.412c-0.48-1.276-0.081-3.296-0.139-4.708c-0.146,0.067-0.408,0.086-0.567,0.177
					c0.086-0.182,0.086-0.579,0.164-0.756c-0.183,0.115-0.42,0.167-0.574,0.249c1.091-1.378-0.554-3.181-0.526-4.793
					c-0.242,0.129-0.764,0.22-0.978,0.373c0.216-0.32,0.314-0.741,0.479-1.057c-0.315,0.23-0.7,0.459-0.965,0.684
					c0.441-0.315,0.635-0.78,0.555-1.311c-0.888,0.402-2.045,0.134-2.981,0.01c-0.007,0.029-0.017,0.057-0.022,0.082
					c-0.098,0.129,0.54,1.655,0.519,2.014c-0.03,0.57-0.317,1.574-0.508,2.11c-0.438,1.205-1.52,2.038-2.81,2.411
					c-0.506,0.148-2.019-0.077-2.223,0.598c-0.226,0.751,1.152,1.397,1.469,1.813c0.95,1.254,1.841,1.336,3.087,1.732
					c0.508,0.158,2.485-0.302,2.561,1.205c0.045,0.877-2.201,1.058-2.787,1.058c-1.547-0.004-3.263,0.234-4.595-0.454
					c-2.524-1.301-1.773-5.66-4.813-6.028c0.162-0.077,0.351-0.249,0.532-0.33c-0.277,0.024-0.559-0.019-0.833,0.01
					c0.324-0.196,0.755-0.464,0.98-0.512c-0.301,0.014-0.616-0.029-0.908-0.019c1.051-0.517,3.516-0.302,3.382-1.866
					c-0.05-0.617-0.813-1.483-1.482-1.536c-0.981-0.077-1,0.584-1.433,1.21c-1.531,2.21-4.79,5.66-7.776,3.206
					c0.927,1.082,0.562,2.641,1.173,3.827c0.73,1.411,3.317,0.865,3.791,2.339c0.677,2.11-5.888,3.665-6.933,1.282
					c-0.118,0.168-0.863-0.086-0.961,0.086c0.088-0.674,0.193-1.405,0.368-2.085c-0.264,0.139-0.706,0.19-0.979,0.373
					c0.116-0.437,0.317-0.891,0.577-1.273c-0.398,0.192-0.781,0.407-1.094,0.752c-0.084-1.01,1.033-1.493,1.212-2.574
					c0.158-0.971,0.274-2.382,0.187-3.301c-0.521-0.063-1.068,0.158-1.481,0.369c0.076-0.483,0.335-0.89,0.761-1.172
					c-0.33,0.072-0.71,0.005-1.04,0.067c0.396-0.402,0.423-0.569,1.04-0.607c-0.445-0.182-0.758-0.345-1.267-0.301
					c0.69-0.761,2.313,0.038,3.404-0.607c1.251-0.732,1.794-2.091,2.24-3.387c0.499-1.459,0.926-3.124,1.719-4.541
					c-0.107-0.004-0.224-0.009-0.344-0.009c-0.594,0.005-1.365,0.115-2.258,0.364c-0.898,0.234-1.916,0.603-3.058,1.014
					c-0.572,0.206-1.174,0.421-1.836,0.622c-0.168,0.043-0.334,0.09-0.51,0.134c-0.085,0.023-0.176,0.043-0.267,0.062l-0.144,0.029
					l-0.123,0.024c-0.319,0.062-0.699,0.125-1.045,0.177c-0.711,0.101-1.447,0.172-2.204,0.196
					c-0.755,0.029-1.531,0.014-2.319-0.058c-0.786-0.072-1.586-0.201-2.379-0.416c-0.793-0.211-1.579-0.507-2.331-0.895
					c-0.37-0.201-0.741-0.416-1.085-0.669c-0.179-0.115-0.342-0.254-0.511-0.383c-0.161-0.144-0.332-0.268-0.48-0.425
					c-0.32-0.292-0.602-0.617-0.872-0.947l-0.194-0.258l-0.107-0.153l-0.082-0.124l-0.166-0.254
					c-0.055-0.096-0.108-0.201-0.16-0.301c-0.426-0.804-0.617-1.669-0.67-2.531C29.43,33.16,29.546,32.318,29.757,31.515z"/>
				<path fill="#FFFFFF" d="M46.706,21.401c-0.002,0-0.007,0.004-0.01,0.004c0.003-0.004,0.005-0.009,0.008-0.014
					C46.719,21.358,46.722,21.358,46.706,21.401z"/>
			</g>
			<path fill="#FFFFFF" d="M105.226,60.357c0,0-27.159-14.419-67.793,1.775C37.433,62.133,73.607,50.669,105.226,60.357z"/>
			<path fill="#FFFFFF" d="M103.041,63.046c0,0-24.025-9.611-49.837-2.88C53.204,60.166,78.607,51.105,103.041,63.046z"/>
			<path fill="#FFFFFF" d="M100.403,11.853c-0.474,0.096-0.656-0.196-0.671-0.498c-0.004-0.067,0.125-0.813-0.224-0.704
				c-0.165,0.048,0.081,0.876,0.122,0.938c0.208,0.311,0.361,0.344,0.772,0.278"/>
		</g>
	</g>
</g>
<g>
	<path fill="#FFFFFF" d="M8.303,97.163v-5.987h1.219v4.971h3.031v1.017H8.303z"/>
	<path fill="#FFFFFF" d="M13.421,97.163v-6.037h4.476v1.021h-3.258v1.34h3.031v1.017h-3.031v1.644h3.373v1.017H13.421z"/>
	<path fill="#FFFFFF" d="M24.489,97.163h-1.326l-0.528-1.371h-2.412l-0.499,1.371h-1.293l2.351-6.037h1.29L24.489,97.163z
		 M22.245,94.775l-0.831-2.241l-0.816,2.241H22.245z"/>
	<path fill="#FFFFFF" d="M25.133,91.126h2.227c0.502,0,0.886,0.038,1.149,0.114c0.354,0.104,0.658,0.291,0.91,0.557
		c0.252,0.267,0.445,0.592,0.577,0.979c0.131,0.386,0.197,0.861,0.197,1.427c0,0.497-0.062,0.926-0.185,1.283
		c-0.151,0.44-0.366,0.798-0.646,1.067c-0.212,0.206-0.498,0.366-0.858,0.483c-0.269,0.084-0.628,0.127-1.079,0.127h-2.293V91.126z
		 M26.352,92.146v4h0.91c0.34,0,0.586-0.019,0.737-0.058c0.197-0.051,0.361-0.134,0.491-0.251c0.131-0.12,0.237-0.313,0.319-0.584
		c0.083-0.27,0.124-0.639,0.124-1.104c0-0.467-0.041-0.826-0.124-1.075c-0.083-0.25-0.197-0.444-0.346-0.586
		c-0.148-0.138-0.335-0.233-0.564-0.284c-0.17-0.038-0.503-0.058-1-0.058H26.352z"/>
	<path fill="#FFFFFF" d="M31.227,97.163v-6.037h4.477v1.021h-3.258v1.34h3.031v1.017h-3.031v1.644h3.374v1.017H31.227z"/>
	<path fill="#FFFFFF" d="M36.855,97.163v-6.037h2.565c0.646,0,1.115,0.054,1.406,0.162c0.293,0.109,0.526,0.302,0.702,0.579
		c0.176,0.277,0.264,0.596,0.264,0.951c0,0.452-0.134,0.828-0.399,1.122c-0.267,0.295-0.665,0.481-1.195,0.559
		c0.265,0.152,0.481,0.322,0.653,0.507c0.171,0.184,0.403,0.509,0.694,0.98l0.737,1.177h-1.457l-0.882-1.313
		c-0.313-0.469-0.527-0.766-0.642-0.887c-0.116-0.122-0.238-0.206-0.367-0.252c-0.129-0.045-0.333-0.069-0.613-0.069h-0.247v2.521
		H36.855z M38.075,93.68h0.902c0.585,0,0.949-0.025,1.095-0.073c0.146-0.051,0.259-0.137,0.342-0.257
		c0.083-0.122,0.124-0.271,0.124-0.452c0-0.203-0.055-0.368-0.162-0.492c-0.109-0.125-0.262-0.204-0.46-0.237
		c-0.099-0.014-0.396-0.021-0.89-0.021h-0.951V93.68z"/>
	<path fill="#FFFFFF" d="M42.633,95.199l1.185-0.115c0.072,0.397,0.216,0.688,0.436,0.875c0.217,0.188,0.512,0.281,0.882,0.281
		c0.392,0,0.689-0.082,0.888-0.25c0.199-0.165,0.299-0.357,0.299-0.581c0-0.144-0.042-0.266-0.125-0.366
		c-0.084-0.1-0.231-0.187-0.439-0.261c-0.143-0.05-0.468-0.136-0.976-0.262c-0.653-0.163-1.113-0.361-1.376-0.599
		c-0.371-0.333-0.556-0.737-0.556-1.215c0-0.307,0.087-0.594,0.262-0.861c0.174-0.269,0.426-0.472,0.753-0.613
		c0.328-0.141,0.724-0.21,1.188-0.21c0.758,0,1.329,0.167,1.712,0.501c0.382,0.33,0.583,0.774,0.603,1.329l-1.219,0.053
		c-0.051-0.311-0.164-0.533-0.335-0.67c-0.172-0.136-0.429-0.203-0.772-0.203c-0.354,0-0.632,0.071-0.833,0.218
		c-0.128,0.093-0.192,0.217-0.192,0.376c0,0.144,0.06,0.265,0.181,0.365c0.154,0.13,0.527,0.264,1.12,0.404
		c0.593,0.139,1.031,0.284,1.316,0.433c0.283,0.15,0.506,0.354,0.666,0.615c0.162,0.258,0.242,0.578,0.242,0.962
		c0,0.346-0.096,0.67-0.289,0.971c-0.192,0.301-0.464,0.526-0.815,0.674c-0.351,0.147-0.789,0.221-1.313,0.221
		c-0.763,0-1.349-0.177-1.758-0.529C42.957,96.388,42.711,95.873,42.633,95.199z"/>
	<path fill="#FFFFFF" d="M48.571,97.163v-6.037h1.22v2.377h2.389v-2.377h1.219v6.037h-1.219v-2.639h-2.389v2.639H48.571z"/>
	<path fill="#FFFFFF" d="M54.62,97.163v-6.037h1.219v6.037H54.62z"/>
	<path fill="#FFFFFF" d="M57,97.163v-6.037h1.956c0.741,0,1.225,0.03,1.45,0.091c0.347,0.091,0.636,0.287,0.87,0.59
		c0.233,0.305,0.35,0.697,0.35,1.177c0,0.372-0.068,0.683-0.202,0.934c-0.135,0.254-0.306,0.452-0.513,0.596
		c-0.207,0.144-0.417,0.239-0.632,0.287c-0.292,0.057-0.713,0.086-1.264,0.086h-0.795v2.277H57z M58.219,92.146v1.714h0.667
		c0.48,0,0.801-0.032,0.964-0.095c0.162-0.064,0.288-0.162,0.38-0.296s0.138-0.292,0.138-0.469c0-0.22-0.065-0.402-0.193-0.546
		c-0.129-0.142-0.293-0.231-0.49-0.268c-0.146-0.025-0.438-0.041-0.876-0.041H58.219z"/>
	<path fill="#FFFFFF" d="M64.813,91.126h2.227c0.502,0,0.886,0.038,1.149,0.114c0.354,0.104,0.658,0.291,0.91,0.557
		c0.252,0.267,0.445,0.592,0.577,0.979c0.132,0.386,0.198,0.861,0.198,1.427c0,0.497-0.063,0.926-0.186,1.283
		c-0.151,0.44-0.366,0.798-0.646,1.067c-0.212,0.206-0.498,0.366-0.857,0.483c-0.27,0.084-0.628,0.127-1.079,0.127h-2.292V91.126z
		 M66.031,92.146v4h0.911c0.339,0,0.586-0.019,0.736-0.058c0.198-0.051,0.361-0.134,0.492-0.251c0.13-0.12,0.237-0.313,0.319-0.584
		c0.083-0.27,0.124-0.639,0.124-1.104c0-0.467-0.041-0.826-0.124-1.075c-0.082-0.25-0.197-0.444-0.345-0.586
		c-0.148-0.138-0.336-0.233-0.565-0.284c-0.17-0.038-0.503-0.058-1-0.058H66.031z"/>
	<path fill="#FFFFFF" d="M70.906,97.163v-6.037h4.477v1.021h-3.258v1.34h3.031v1.017h-3.031v1.644h3.373v1.017H70.906z"/>
	<path fill="#FFFFFF" d="M78.071,97.163l-2.158-6.037h1.32l1.529,4.468l1.478-4.468h1.292l-2.16,6.037H78.071z"/>
	<path fill="#FFFFFF" d="M82.154,97.163v-6.037h4.478v1.021h-3.257v1.34h3.03v1.017h-3.03v1.644h3.372v1.017H82.154z"/>
	<path fill="#FFFFFF" d="M87.813,97.163v-5.987h1.22v4.971h3.031v1.017H87.813z"/>
	<path fill="#FFFFFF" d="M92.684,94.183c0-0.615,0.094-1.132,0.277-1.551c0.137-0.306,0.325-0.583,0.563-0.827
		c0.235-0.244,0.497-0.426,0.778-0.543c0.376-0.157,0.812-0.239,1.302-0.239c0.89,0,1.601,0.277,2.136,0.827
		c0.534,0.553,0.8,1.321,0.8,2.304c0,0.975-0.264,1.737-0.794,2.287c-0.529,0.551-1.238,0.825-2.125,0.825
		c-0.896,0-1.611-0.272-2.141-0.82C92.949,95.897,92.684,95.142,92.684,94.183z M93.942,94.14c0,0.684,0.157,1.202,0.474,1.555
		c0.313,0.354,0.715,0.528,1.201,0.528c0.485,0,0.885-0.175,1.195-0.523c0.313-0.35,0.469-0.876,0.469-1.574
		c0-0.693-0.152-1.208-0.457-1.55c-0.301-0.34-0.705-0.51-1.207-0.51c-0.503,0-0.907,0.172-1.216,0.517
		C94.095,92.927,93.942,93.445,93.942,94.14z"/>
	<path fill="#FFFFFF" d="M99.491,97.163v-6.037h1.955c0.741,0,1.225,0.03,1.449,0.091c0.347,0.091,0.636,0.287,0.87,0.59
		c0.232,0.305,0.35,0.697,0.35,1.177c0,0.372-0.066,0.683-0.2,0.934c-0.138,0.254-0.307,0.452-0.515,0.596
		c-0.206,0.144-0.417,0.239-0.632,0.287c-0.292,0.057-0.713,0.086-1.263,0.086h-0.797v2.277H99.491z M100.709,92.146v1.714h0.667
		c0.481,0,0.802-0.032,0.965-0.095c0.163-0.064,0.289-0.162,0.38-0.296c0.094-0.134,0.139-0.292,0.139-0.469
		c0-0.22-0.064-0.402-0.194-0.546c-0.128-0.142-0.291-0.231-0.489-0.268c-0.146-0.025-0.438-0.041-0.876-0.041H100.709z"/>
	<path fill="#FFFFFF" d="M105.101,97.163v-6.037h1.825l1.093,4.118l1.084-4.118h1.83v6.037h-1.134V92.41l-1.198,4.753h-1.172
		l-1.196-4.753v4.753H105.101z"/>
	<path fill="#FFFFFF" d="M112.144,97.163v-6.037h4.475v1.021h-3.258v1.34h3.03v1.017h-3.03v1.644h3.372v1.017H112.144z"/>
	<path fill="#FFFFFF" d="M117.778,97.163v-6.037h1.187l2.471,4.033v-4.033h1.134v6.037h-1.225l-2.433-3.938v3.938H117.778z"/>
	<path fill="#FFFFFF" d="M125.215,97.163v-5.017h-1.791v-1.021h4.798v1.021h-1.786v5.017H125.215z"/>
</g>
<g>
	<path fill="#FFFFFF" d="M19.632,67.095l0.462,6.866h-0.462c-0.614-2.051-1.494-3.529-2.633-4.433
		c-1.142-0.904-2.507-1.356-4.096-1.356c-1.346,0-2.561,0.34-3.645,1.02c-1.083,0.681-1.933,1.763-2.547,3.251
		c-0.616,1.487-0.923,3.339-0.923,5.556c0,1.82,0.292,3.402,0.875,4.741c0.583,1.34,1.464,2.368,2.644,3.085
		c1.179,0.719,2.52,1.077,4.019,1.077c1.308,0,2.464-0.283,3.471-0.845c1.006-0.564,2.105-1.679,3.298-3.346l0.461,0.307
		c-1.013,1.795-2.192,3.109-3.538,3.94c-1.347,0.835-2.95,1.252-4.808,1.252c-3.345,0-5.936-1.244-7.768-3.732
		c-1.372-1.831-2.059-4.003-2.059-6.519c0-2.011,0.452-3.859,1.356-5.546c0.904-1.687,2.147-2.993,3.731-3.923
		c1.583-0.928,3.31-1.396,5.182-1.396c1.462,0,2.904,0.359,4.328,1.077c0.409,0.22,0.705,0.328,0.883,0.328
		c0.27,0,0.506-0.089,0.712-0.271c0.256-0.268,0.435-0.646,0.538-1.135H19.632z"/>
	<path fill="#FFFFFF" d="M29.228,73.712c2.063,0,3.723,0.782,4.98,2.345c1.064,1.346,1.596,2.885,1.596,4.616
		c0,1.229-0.294,2.471-0.884,3.719c-0.589,1.252-1.397,2.193-2.422,2.828c-1.027,0.633-2.167,0.951-3.423,0.951
		c-2.051,0-3.685-0.82-4.904-2.461c-1.025-1.385-1.538-2.935-1.538-4.655c0-1.24,0.311-2.482,0.933-3.719
		c0.622-1.236,1.438-2.15,2.452-2.741C27.028,74.007,28.1,73.712,29.228,73.712z M28.766,74.673c-0.526,0-1.055,0.155-1.585,0.47
		c-0.532,0.314-0.962,0.863-1.289,1.646S25.4,78.574,25.4,79.807c0,1.987,0.395,3.7,1.183,5.143s1.83,2.164,3.125,2.164
		c0.962,0,1.756-0.396,2.384-1.192c0.628-0.795,0.942-2.16,0.942-4.096c0-2.423-0.525-4.326-1.576-5.712
		C30.753,75.154,29.856,74.673,28.766,74.673z"/>
	<path fill="#FFFFFF" d="M41.785,76.594c1.603-1.921,3.127-2.882,4.576-2.882c0.744,0,1.381,0.185,1.914,0.558
		c0.532,0.37,0.958,0.985,1.278,1.844c0.219,0.59,0.328,1.5,0.328,2.731v5.827c0,0.859,0.069,1.442,0.212,1.748
		c0.115,0.245,0.294,0.438,0.538,0.577c0.243,0.144,0.693,0.213,1.346,0.213v0.538h-6.749V87.21h0.288
		c0.628,0,1.07-0.097,1.327-0.289s0.429-0.474,0.52-0.845c0.05-0.155,0.077-0.622,0.077-1.404v-5.578
		c0-1.241-0.164-2.146-0.49-2.711c-0.326-0.563-0.869-0.846-1.625-0.846c-1.179,0-2.358,0.647-3.538,1.942v7.192
		c0,0.924,0.057,1.492,0.173,1.71c0.14,0.283,0.329,0.49,0.567,0.627c0.237,0.134,0.733,0.201,1.491,0.201v0.538h-6.75V87.21h0.289
		c0.705,0,1.175-0.177,1.413-0.529c0.237-0.352,0.355-1.021,0.355-2.009v-5.057c0-1.641-0.036-2.641-0.105-3.002
		c-0.071-0.358-0.183-0.601-0.337-0.729c-0.153-0.13-0.359-0.191-0.615-0.191c-0.282,0-0.616,0.077-1,0.23l-0.231-0.539l4.114-1.672
		h0.635V76.594z"/>
	<path fill="#FFFFFF" d="M61.88,73.712v4.652h-0.5c-0.373-1.462-0.852-2.455-1.442-2.98c-0.591-0.526-1.347-0.789-2.27-0.789
		c-0.691,0-1.25,0.185-1.672,0.548c-0.423,0.365-0.635,0.772-0.635,1.223c0,0.55,0.16,1.025,0.48,1.423
		c0.296,0.409,0.917,0.847,1.866,1.306l2.17,1.041c2.015,0.984,3.021,2.281,3.021,3.882c0,1.243-0.469,2.248-1.404,3.012
		c-0.938,0.761-1.988,1.143-3.154,1.143c-0.833,0-1.782-0.153-2.845-0.462c-0.334-0.091-0.603-0.134-0.809-0.134
		c-0.231,0-0.411,0.128-0.538,0.383h-0.5v-4.862h0.5c0.282,1.382,0.814,2.428,1.597,3.133c0.781,0.706,1.66,1.058,2.633,1.058
		c0.681,0,1.238-0.2,1.673-0.605c0.436-0.404,0.653-0.887,0.653-1.452c0-0.679-0.239-1.252-0.72-1.722
		c-0.48-0.466-1.442-1.058-2.885-1.767c-1.442-0.714-2.387-1.357-2.836-1.934c-0.449-0.564-0.673-1.282-0.673-2.152
		c0-1.118,0.385-2.054,1.155-2.809c0.769-0.756,1.769-1.134,2.999-1.134c0.525,0,1.173,0.114,1.941,0.344
		c0.503,0.155,0.842,0.232,1.02,0.232c0.153,0,0.277-0.036,0.366-0.104c0.088-0.072,0.194-0.23,0.309-0.472H61.88z"/>
	<path fill="#FFFFFF" d="M69.627,73.712v10.96c0,0.844,0.062,1.409,0.185,1.691c0.122,0.282,0.304,0.495,0.547,0.634
		c0.244,0.144,0.694,0.213,1.344,0.213v0.538h-6.633V87.21c0.667,0,1.117-0.065,1.346-0.191c0.23-0.129,0.415-0.34,0.548-0.637
		c0.136-0.294,0.203-0.866,0.203-1.71v-5.251c0-1.485-0.048-2.446-0.136-2.885c-0.077-0.32-0.189-0.54-0.337-0.662
		c-0.146-0.122-0.349-0.182-0.603-0.182c-0.282,0-0.622,0.077-1.021,0.23l-0.21-0.539l4.114-1.672H69.627z M68.398,66.576
		c0.412,0,0.761,0.148,1.057,0.442c0.297,0.295,0.442,0.653,0.442,1.077c0,0.41-0.146,0.763-0.442,1.057
		c-0.296,0.297-0.646,0.442-1.057,0.442c-0.423,0-0.782-0.146-1.077-0.442c-0.296-0.294-0.442-0.646-0.442-1.057
		c0-0.424,0.146-0.782,0.442-1.077C67.616,66.725,67.975,66.576,68.398,66.576z"/>
	<path fill="#FFFFFF" d="M78.071,66.576v18.096c0,0.844,0.062,1.409,0.191,1.691c0.129,0.282,0.32,0.495,0.576,0.634
		c0.256,0.144,0.737,0.213,1.442,0.213v0.538h-6.693V87.21c0.629,0,1.058-0.065,1.29-0.191c0.232-0.129,0.409-0.34,0.538-0.637
		c0.129-0.294,0.191-0.866,0.191-1.71V72.289c0-1.539-0.033-2.486-0.105-2.838s-0.182-0.593-0.335-0.72
		c-0.155-0.129-0.354-0.194-0.598-0.194c-0.256,0-0.584,0.077-0.981,0.232l-0.249-0.519l4.076-1.675H78.071z"/>
	<path fill="#FFFFFF" d="M86.548,73.712v10.96c0,0.844,0.063,1.409,0.185,1.691s0.305,0.495,0.548,0.634
		c0.244,0.144,0.694,0.213,1.345,0.213v0.538h-6.633V87.21c0.667,0,1.117-0.065,1.347-0.191c0.229-0.129,0.414-0.34,0.548-0.637
		c0.136-0.294,0.202-0.866,0.202-1.71v-5.251c0-1.485-0.047-2.446-0.136-2.885c-0.076-0.32-0.188-0.54-0.337-0.662
		c-0.146-0.122-0.349-0.182-0.603-0.182c-0.282,0-0.622,0.077-1.021,0.23l-0.21-0.539l4.114-1.672H86.548z M85.319,66.576
		c0.411,0,0.761,0.148,1.057,0.442c0.297,0.295,0.442,0.653,0.442,1.077c0,0.41-0.146,0.763-0.442,1.057
		c-0.296,0.297-0.646,0.442-1.057,0.442c-0.424,0-0.782-0.146-1.077-0.442c-0.297-0.294-0.442-0.646-0.442-1.057
		c0-0.424,0.146-0.782,0.442-1.077C84.537,66.725,84.896,66.576,85.319,66.576z"/>
	<path fill="#FFFFFF" d="M102.259,74.113v8.27c0,1.576,0.038,2.543,0.115,2.895c0.076,0.352,0.196,0.596,0.356,0.729
		c0.16,0.136,0.349,0.203,0.567,0.203c0.309,0,0.654-0.083,1.037-0.252l0.213,0.521l-4.078,1.692h-0.672v-2.884
		c-1.165,1.27-2.058,2.066-2.673,2.395c-0.617,0.327-1.262,0.489-1.941,0.489c-0.771,0-1.433-0.222-1.99-0.662
		c-0.56-0.442-0.947-1.015-1.162-1.713c-0.221-0.698-0.331-1.682-0.331-2.951v-6.076c0-0.655-0.068-1.103-0.21-1.347
		c-0.139-0.244-0.35-0.433-0.625-0.566c-0.274-0.135-0.765-0.196-1.47-0.183v-0.56h4.77v9.116c0,1.282,0.22,2.119,0.662,2.51
		c0.442,0.39,0.979,0.586,1.605,0.586c0.423,0,0.904-0.132,1.441-0.396c0.538-0.261,1.181-0.77,1.924-1.528v-7.728
		c0-0.771-0.142-1.293-0.423-1.57c-0.283-0.275-0.866-0.419-1.751-0.431v-0.56H102.259z"/>
	<path fill="#FFFFFF" d="M109.604,76.613c0.988-0.985,1.572-1.557,1.751-1.71c0.448-0.371,0.934-0.663,1.452-0.875
		c0.52-0.212,1.028-0.316,1.529-0.316c0.858,0,1.596,0.249,2.209,0.749c0.615,0.499,1.026,1.217,1.232,2.152
		c1.023-1.191,1.89-1.974,2.596-2.344c0.705-0.373,1.428-0.558,2.172-0.558c0.717,0,1.358,0.185,1.923,0.558
		c0.564,0.37,1.007,0.979,1.327,1.824c0.219,0.58,0.328,1.481,0.328,2.713v5.865c0,0.844,0.062,1.428,0.191,1.748
		c0.103,0.22,0.289,0.404,0.558,0.558c0.27,0.155,0.706,0.232,1.308,0.232v0.538h-6.731V87.21h0.291
		c0.588,0,1.042-0.114,1.362-0.347c0.231-0.153,0.4-0.404,0.5-0.749c0.04-0.168,0.06-0.648,0.06-1.442v-5.865
		c0-1.115-0.136-1.896-0.404-2.347c-0.384-0.641-1.007-0.962-1.865-0.962c-0.526,0-1.056,0.132-1.586,0.396
		c-0.533,0.263-1.178,0.753-1.933,1.471l-0.02,0.153l0.02,0.655v6.499c0,0.936,0.056,1.516,0.163,1.739
		c0.11,0.225,0.309,0.413,0.596,0.566c0.289,0.155,0.778,0.232,1.471,0.232v0.538H113.2V87.21c0.758,0,1.277-0.091,1.56-0.27
		c0.279-0.181,0.48-0.448,0.596-0.808c0.05-0.167,0.076-0.654,0.076-1.461v-5.865c0-1.115-0.167-1.916-0.5-2.404
		c-0.436-0.627-1.045-0.941-1.827-0.941c-0.538,0-1.069,0.14-1.596,0.423c-0.82,0.436-1.454,0.93-1.904,1.48v7.308
		c0,0.885,0.061,1.461,0.183,1.729c0.122,0.27,0.307,0.471,0.55,0.607c0.242,0.134,0.736,0.201,1.48,0.201v0.538h-6.731V87.21
		c0.627,0,1.065-0.067,1.307-0.201c0.244-0.137,0.431-0.347,0.559-0.637c0.13-0.286,0.192-0.856,0.192-1.7V79.46
		c0-1.501-0.043-2.466-0.134-2.904c-0.064-0.332-0.17-0.56-0.318-0.682c-0.146-0.122-0.35-0.182-0.605-0.182
		c-0.282,0-0.614,0.077-1,0.23l-0.229-0.539l4.115-1.672h0.633V76.613z"/>
</g>
</svg>
