<?xml version="1.0" encoding="utf-8"?>
<!-- Generator: Adobe Illustrator 16.0.0, SVG Export Plug-In . SVG Version: 6.00 Build 0)  -->
<!DOCTYPE svg PUBLIC "-//W3C//DTD SVG 1.1//EN" "http://www.w3.org/Graphics/SVG/1.1/DTD/svg11.dtd">
<svg version="1.1" id="Layer_1" xmlns="http://www.w3.org/2000/svg" xmlns:xlink="http://www.w3.org/1999/xlink" x="0px" y="0px"
	 width="60px" height="50px" viewBox="0 0 60 50" enable-background="new 0 0 60 50" xml:space="preserve">
<g>
	<g>
		<g>
			<g>
				<path fill="#FFFFFF" d="M42.053,12.574c0.028,0.002,0.057,0.004,0.084,0.008C42.107,12.58,42.081,12.578,42.053,12.574z"/>
				<path fill="#FFFFFF" d="M37.225,24.072c0.002-0.002,0.002-0.002,0.004-0.004c-0.002,0.002-0.002,0.002-0.002,0.002
					C37.227,24.102,37.225,24.102,37.225,24.072z"/>
				<path fill="#FFFFFF" d="M35.47,4.953c-0.002,0-0.003,0-0.005,0c0,0,0.002-0.002,0.002-0.004
					C35.498,4.951,35.498,4.953,35.47,4.953z"/>
				<path fill="#FFFFFF" d="M15.482,17.301c0.179-0.654,0.502-1.24,0.892-1.734c0.392-0.498,0.852-0.916,1.361-1.201
					c0.063-0.035,0.129-0.066,0.193-0.098l0.026-0.014l0.024-0.01l0.047-0.021c0.032-0.014,0.062-0.027,0.097-0.039
					c0.135-0.053,0.267-0.094,0.401-0.125c0.267-0.063,0.532-0.082,0.784-0.07c0.253,0.014,0.492,0.059,0.711,0.127
					c0.109,0.031,0.213,0.07,0.312,0.115c0.192-0.299,0.159-0.639,0.754-0.729c0.454-0.068,0.894-0.07,1.313-0.328
					c-0.127,0.238-0.353,0.363-0.606,0.443c0.342-0.098,0.817,0.115,1.167,0.277c-0.125,0.023-0.409,0.082-0.533,0.119
					c0.355,0.168,0.836,0.26,0.981,0.756c-0.076-0.035-0.331-0.172-0.395-0.209c0.35,0.256,0.279,0.76,0.616,0.99
					c-0.06-0.027-0.164-0.047-0.223-0.078c0.14,0.438,0.414,0.58,0.805,0.762c-0.253,0.141-0.612-0.027-0.814-0.189
					c0.06,0.055,0.104,0.102,0.163,0.156c-0.296,0.023-0.554-0.313-0.666-0.543c0.011,0.205,0.072,0.418,0.193,0.582
					c-0.44-0.063-0.761-0.266-0.996-0.646c-0.07,0.188,0.078,0.518,0.179,0.688c-0.503-0.127-0.639-0.67-0.911-1
					c0.027,0.154,0.056,0.314,0.092,0.467c-0.253-0.047-0.406-0.279-0.499-0.51c-0.072,0.156,0.117,0.727,0.203,0.885
					c-0.546-0.188-1.03-1.174-0.945-1.684l0.008-0.07c0.02-0.021,0.038-0.041,0.055-0.063c-0.091-0.033-0.186-0.064-0.285-0.09
					c-0.213-0.057-0.444-0.09-0.686-0.096c-0.24,0-0.489,0.029-0.739,0.098c-0.123,0.035-0.25,0.08-0.369,0.133
					c-0.059,0.025-0.126,0.059-0.183,0.086c-0.059,0.035-0.119,0.064-0.177,0.102c-0.467,0.287-0.892,0.703-1.243,1.189
					c-0.353,0.486-0.632,1.053-0.772,1.656c-0.064,0.301-0.094,0.609-0.067,0.914c0.011,0.074,0.016,0.15,0.033,0.223
					c0.008,0.037,0.013,0.074,0.023,0.111l0.03,0.107c0.009,0.037,0.023,0.07,0.036,0.107c0.013,0.035,0.024,0.068,0.04,0.104
					c0.034,0.066,0.061,0.139,0.098,0.195c0.019,0.031,0.034,0.061,0.055,0.092l0.07,0.102l0.035,0.051
					c-0.008-0.014,0,0-0.001-0.004l0.005,0.008l0.009,0.01l0.019,0.021l0.072,0.092c0.102,0.113,0.207,0.227,0.324,0.324
					c0.056,0.051,0.118,0.096,0.177,0.145c0.062,0.041,0.121,0.09,0.186,0.129c0.126,0.084,0.262,0.152,0.397,0.221
					c0.274,0.127,0.562,0.223,0.855,0.287c0.292,0.066,0.588,0.102,0.881,0.117c0.294,0.016,0.586,0.01,0.869-0.014
					c0.285-0.021,0.561-0.059,0.829-0.109c0.136-0.023,0.257-0.049,0.395-0.082l0.049-0.012l0.042-0.01
					c0.03-0.01,0.06-0.016,0.089-0.025c0.059-0.016,0.117-0.035,0.177-0.055c0.237-0.082,0.471-0.176,0.698-0.27
					c0.455-0.184,0.885-0.359,1.289-0.486c0.403-0.127,0.78-0.205,1.115-0.221c0.312-0.016,0.576,0.023,0.765,0.08
					c1.196-1.016,2.586-0.791,3.98-1.203c0.614-0.184,1.292-0.512,1.773-0.953c0.155-0.143,0.649-0.684,0.606-0.902
					c-0.073-0.369-0.461-0.262-0.66,0.004c-0.125-0.58,1.113-0.504,1.227-1.148c-0.366-0.051-0.988-0.35-0.381-0.697
					c-0.174,0.646,0.824-0.07,0.912-0.465c0.178-0.807-0.671-0.865-0.811-0.168c-0.168-1.18,1.801-0.781,1.551-1.908
					c-0.365-0.164-0.685,0.15-0.649,0.533c-0.189-0.654,0.16-1.061,0.85-1.146c-0.373,0.018-0.618-0.217-0.731-0.568
					c0.277,0.24,0.689,0.168,0.902-0.088c-0.207-0.051-0.296-0.117-0.44-0.248c0.349,0.125,0.971-0.146,0.682-0.623
					c-0.24-0.395-0.809-0.057-0.853,0.316c-0.021-0.387,0.267-0.668,0.571-0.84c-0.553-0.072-0.963,0.174-1.313,0.592
					c0.127-0.471,0.584-0.824,1.099-0.805c-0.496,0.008-2.216-0.566-1.06-1.063c-0.075,0.705,1.015,0.248,1.286,0.047
					C34.381,7.889,34.545,7.346,35,7.082c-0.281-0.016-0.816-0.277-0.404-0.525c0.086,0.723,1.485-0.654,1.848-0.621
					c-0.326-0.146-0.766,0.027-1.061-0.193c-0.286-0.213-0.395-0.799,0.082-0.789c-0.506,0.684,0.898,0.604,1.188,0.574
					c0.467-0.051,1.111-0.162,1.502,0.158c-0.152-0.221-0.396-0.359-0.626-0.488c0.338,0.049,0.611,0.09,0.919,0.258
					c0.316,0.176,0.506,0.49,0.907,0.432c-0.124-0.141-0.269-0.295-0.391-0.445c0.368,0.234,0.788,0.326,1.137,0.604
					c-0.128-0.338-0.614-0.457-0.808-0.842c0.506,0.363,1.447,0.467,1.632,1.18c0.229-0.096,0.234-0.359,0.156-0.596
					c0.311,0.357,0.446,0.666,0.083,1.053l0.01-0.01c0.766-0.057,1.035,0.316,1.592,0.719c0.467,0.336,1.387,0.252,1.711,0.654
					c0.359,0.443-0.14,1.219-0.392,1.547c-0.457,0.6-0.937,0.18-1.555,0.537c0.524-0.125,0.956-0.16,1.085,0.316
					c0.121,0.441-0.16,0.758,0.283,1.195c-0.406,0.033-0.425-0.344-0.638-0.463c0.02,0.178,0.304,0.701,0.411,0.85
					c-0.258-0.176-0.631-0.672-0.783-0.922c-0.055,0.127-0.237,0.154-0.207,0.439c-0.041-0.072-0.141-0.158-0.156-0.184
					c0.007,0.127-0.02,0.262-0.006,0.391c-0.053-0.416-0.801-1.17-1.275-0.889c-0.502,0.299,0.602,0.977,0.934,1.025
					c-0.34,0.01-0.644-0.023-0.958-0.084c0.188,0.334,0.45,0.563,0.833,0.611c-0.16-0.016-0.313-0.027-0.466-0.07
					c0.233,0.338,0.516,0.525,0.919,0.611c-0.428,0.264-0.696-0.203-1.092-0.24c0.489,0.377,0.586,0.758,0.564,1.365
					c0.103,0.168,0.162,0.352,0.133,0.541c-0.137-0.16-0.28-0.303-0.451-0.41c0.228,0.209,0.304,0.607,0.275,0.912
					c-0.051-0.049-0.113-0.1-0.176-0.148c0.381,0.412,0.424,1.096,0.185,1.586c-0.187-0.184-0.332-0.453-0.571-0.598
					c0.127,0.273,0.15,0.578,0.09,0.875c-0.076-0.229-0.222-0.508-0.488-0.564c0.191,0.303,0.408,1.354-0.133,1.393
					c-0.01-0.322-0.102-0.641-0.244-0.926c0.277,1.402-0.471,2.355-0.828,3.594c-0.17,0.582-0.543,1.105-0.697,1.684
					c-0.174,0.646-0.018,1.264,0.123,1.889c0.154,0.691,0.447,1.072,0.76,1.723c0.471,0.984,1.203,0.234,1.681,0.574
					c0.493,0.348,0.324,0.82,0.124,1.064c-0.211,0.26-0.67,0.088-0.924,0.021c-0.659-0.172-1.127-0.23-1.805-0.35
					c-0.271-0.049-0.623-0.117-0.82-0.348c-0.208-0.244-0.206-0.574-0.289-0.881c-0.07-0.26-0.23-0.455-0.285-0.74
					c-0.063-0.322,0.051-0.674-0.049-0.977c-0.074,0.051-0.217,0.074-0.273,0.109c0.047-0.115,0.033-0.277,0.07-0.389
					c-0.037,0.053-0.115,0.135-0.156,0.193c0.069-0.473-0.215-0.99-0.338-1.432c-0.072,0.055-0.147,0.041-0.232,0.145
					c0.035-0.104,0.006-0.205,0.03-0.303c-0.089,0.07-0.182,0.094-0.267,0.156c0.119-0.176,0.11-0.297,0.141-0.494
					c-0.252,0.352-0.848,0.025-1.192,0.275c-0.284,0.205-0.407,0.721-0.44,1.033c-0.039,0.383,0.063,0.842,0.165,1.189
					c0.116,0.389,0.431,0.602,0.538,0.979c0.345-0.082,1.359-0.186,1.099,0.484c0.558-0.227,1.005,0.977,0.003,1.041
					c-0.627,0.039-1.358-0.059-2.009-0.082c-0.597-0.023-1.311,0.059-1.551-0.576c-0.196-0.521-0.033-1.346-0.057-1.922
					c-0.06,0.027-0.167,0.035-0.231,0.072c0.035-0.074,0.035-0.236,0.067-0.309c-0.075,0.047-0.171,0.068-0.234,0.102
					c0.445-0.563-0.226-1.299-0.215-1.957c-0.099,0.053-0.312,0.09-0.399,0.152c0.088-0.131,0.128-0.303,0.195-0.432
					c-0.128,0.094-0.286,0.188-0.394,0.279c0.18-0.129,0.259-0.318,0.227-0.535c-0.363,0.164-0.835,0.055-1.217,0.004
					c-0.003,0.012-0.007,0.023-0.009,0.033c-0.04,0.053,0.22,0.676,0.212,0.822c-0.012,0.232-0.129,0.643-0.208,0.861
					c-0.179,0.492-0.621,0.832-1.147,0.984c-0.207,0.061-0.824-0.031-0.908,0.244c-0.092,0.307,0.471,0.57,0.6,0.74
					c0.388,0.512,0.752,0.545,1.261,0.707c0.208,0.064,1.015-0.123,1.045,0.492c0.019,0.357-0.898,0.432-1.138,0.432
					c-0.631-0.002-1.332,0.096-1.876-0.186c-1.031-0.531-0.724-2.311-1.965-2.461c0.066-0.031,0.143-0.102,0.217-0.135
					c-0.113,0.01-0.228-0.008-0.34,0.004c0.132-0.08,0.308-0.189,0.4-0.209c-0.123,0.006-0.251-0.012-0.371-0.008
					c0.429-0.211,1.436-0.123,1.381-0.762c-0.021-0.252-0.332-0.605-0.605-0.627c-0.401-0.031-0.408,0.238-0.585,0.494
					c-0.625,0.902-1.956,2.311-3.175,1.309c0.378,0.441,0.229,1.078,0.479,1.563c0.298,0.576,1.354,0.354,1.548,0.955
					c0.276,0.861-2.404,1.496-2.831,0.523c-0.048,0.068-0.353-0.035-0.393,0.035c0.036-0.275,0.079-0.574,0.15-0.852
					c-0.108,0.057-0.288,0.078-0.4,0.152c0.047-0.178,0.129-0.363,0.235-0.52c-0.163,0.078-0.319,0.166-0.446,0.307
					c-0.035-0.412,0.421-0.609,0.495-1.051c0.064-0.396,0.112-0.973,0.076-1.348c-0.213-0.025-0.436,0.064-0.604,0.15
					c0.031-0.197,0.137-0.363,0.311-0.479c-0.135,0.029-0.29,0.002-0.425,0.027c0.162-0.164,0.173-0.232,0.425-0.248
					c-0.182-0.074-0.31-0.141-0.517-0.123c0.282-0.311,0.944,0.016,1.39-0.248c0.511-0.299,0.732-0.854,0.915-1.383
					c0.204-0.596,0.378-1.275,0.702-1.854c-0.044-0.002-0.091-0.004-0.141-0.004c-0.243,0.002-0.557,0.047-0.922,0.148
					c-0.367,0.096-0.782,0.246-1.249,0.414c-0.233,0.084-0.479,0.172-0.75,0.254c-0.069,0.018-0.137,0.037-0.208,0.055
					c-0.035,0.01-0.072,0.018-0.109,0.025l-0.059,0.012l-0.05,0.01c-0.13,0.025-0.286,0.051-0.427,0.072
					c-0.291,0.041-0.591,0.07-0.9,0.08c-0.309,0.012-0.625,0.006-0.947-0.023c-0.321-0.029-0.647-0.082-0.971-0.17
					c-0.324-0.086-0.645-0.207-0.952-0.365c-0.151-0.082-0.302-0.17-0.443-0.273c-0.073-0.047-0.14-0.104-0.208-0.156
					c-0.066-0.059-0.136-0.109-0.196-0.174c-0.131-0.119-0.246-0.252-0.356-0.387l-0.079-0.105l-0.044-0.063l-0.033-0.051
					l-0.068-0.104c-0.022-0.039-0.044-0.082-0.065-0.123c-0.174-0.328-0.252-0.682-0.273-1.033
					C15.349,17.973,15.396,17.629,15.482,17.301z"/>
				<path fill="#FFFFFF" d="M22.402,13.172c-0.001,0-0.003,0.002-0.004,0.002c0.001-0.002,0.002-0.004,0.003-0.006
					C22.407,13.154,22.408,13.154,22.402,13.172z"/>
			</g>
			<path fill="#FFFFFF" d="M46.293,29.076c0,0-11.088-5.887-27.677,0.725C18.616,29.801,33.384,25.121,46.293,29.076z"/>
			<path fill="#FFFFFF" d="M45.401,30.174c0,0-9.809-3.924-20.347-1.176C25.055,28.998,35.426,25.299,45.401,30.174z"/>
			<path fill="#FFFFFF" d="M44.324,9.273c-0.193,0.039-0.268-0.08-0.273-0.203c-0.002-0.027,0.051-0.332-0.092-0.287
				c-0.067,0.02,0.033,0.357,0.05,0.383c0.085,0.127,0.147,0.141,0.315,0.113"/>
		</g>
	</g>
	<g>
		<g>
			<path fill="#FFFFFF" d="M11.331,31.746l0.188,2.803h-0.188c-0.251-0.837-0.61-1.44-1.075-1.81
				c-0.466-0.369-1.023-0.554-1.672-0.554c-0.549,0-1.045,0.139-1.488,0.416c-0.442,0.278-0.789,0.72-1.04,1.327
				c-0.251,0.607-0.377,1.363-0.377,2.269c0,0.743,0.119,1.389,0.357,1.936c0.238,0.547,0.598,0.967,1.079,1.26
				s1.029,0.439,1.641,0.439c0.534,0,1.006-0.115,1.417-0.345c0.411-0.23,0.859-0.686,1.346-1.366l0.188,0.125
				c-0.414,0.733-0.895,1.27-1.444,1.609c-0.55,0.341-1.204,0.511-1.963,0.511c-1.366,0-2.423-0.508-3.171-1.523
				c-0.56-0.748-0.84-1.635-0.84-2.661c0-0.821,0.185-1.576,0.554-2.265s0.876-1.222,1.523-1.602
				c0.646-0.379,1.352-0.569,2.116-0.569c0.597,0,1.186,0.146,1.767,0.439c0.167,0.09,0.288,0.134,0.361,0.134
				c0.11,0,0.207-0.036,0.291-0.11c0.104-0.109,0.178-0.264,0.22-0.463H11.331z"/>
			<path fill="#FFFFFF" d="M15.249,34.447c0.842,0,1.52,0.319,2.033,0.957c0.435,0.55,0.651,1.178,0.651,1.885
				c0,0.502-0.12,1.009-0.361,1.519c-0.241,0.511-0.571,0.896-0.989,1.154c-0.419,0.259-0.884,0.389-1.397,0.389
				c-0.837,0-1.504-0.335-2.002-1.005c-0.418-0.565-0.628-1.198-0.628-1.9c0-0.507,0.127-1.014,0.381-1.519s0.587-0.878,1.001-1.119
				C14.351,34.567,14.788,34.447,15.249,34.447z M15.06,34.84c-0.215,0-0.431,0.063-0.647,0.191
				c-0.217,0.129-0.393,0.353-0.526,0.672c-0.133,0.319-0.2,0.729-0.2,1.232c0,0.812,0.161,1.511,0.483,2.1s0.747,0.884,1.276,0.884
				c0.393,0,0.717-0.162,0.973-0.487c0.256-0.324,0.385-0.882,0.385-1.672c0-0.989-0.214-1.767-0.644-2.332
				C15.871,35.036,15.505,34.84,15.06,34.84z"/>
			<path fill="#FFFFFF" d="M20.375,35.624c0.654-0.784,1.277-1.177,1.868-1.177c0.304,0,0.564,0.075,0.781,0.228
				c0.217,0.151,0.391,0.402,0.522,0.753c0.089,0.241,0.134,0.612,0.134,1.115v2.379c0,0.351,0.028,0.589,0.086,0.714
				c0.047,0.1,0.12,0.179,0.22,0.235c0.099,0.059,0.283,0.087,0.549,0.087v0.22H21.78v-0.22h0.118c0.256,0,0.437-0.039,0.542-0.118
				c0.105-0.078,0.175-0.193,0.212-0.345c0.021-0.063,0.031-0.254,0.031-0.573v-2.277c0-0.507-0.067-0.876-0.2-1.106
				s-0.354-0.346-0.664-0.346c-0.481,0-0.963,0.265-1.444,0.793v2.937c0,0.377,0.023,0.609,0.071,0.698
				c0.057,0.115,0.134,0.2,0.231,0.256c0.097,0.055,0.299,0.082,0.608,0.082v0.22H18.53v-0.22h0.118c0.288,0,0.48-0.072,0.577-0.216
				c0.097-0.144,0.145-0.417,0.145-0.82v-2.064c0-0.67-0.015-1.078-0.043-1.226c-0.029-0.146-0.075-0.245-0.138-0.298
				c-0.063-0.053-0.146-0.078-0.251-0.078c-0.115,0-0.251,0.031-0.408,0.094l-0.094-0.22l1.68-0.683h0.259V35.624z"/>
			<path fill="#FFFFFF" d="M28.579,34.447v1.899h-0.204c-0.152-0.597-0.348-1.002-0.589-1.217s-0.55-0.322-0.927-0.322
				c-0.282,0-0.51,0.075-0.683,0.224c-0.173,0.149-0.259,0.315-0.259,0.499c0,0.225,0.065,0.419,0.196,0.581
				c0.121,0.167,0.374,0.346,0.762,0.533l0.887,0.425c0.822,0.402,1.233,0.932,1.233,1.585c0,0.508-0.191,0.918-0.573,1.229
				c-0.382,0.311-0.812,0.467-1.288,0.467c-0.34,0-0.728-0.063-1.162-0.188c-0.136-0.037-0.246-0.055-0.33-0.055
				c-0.094,0-0.167,0.052-0.22,0.156h-0.204v-1.985h0.204c0.115,0.564,0.333,0.991,0.652,1.279c0.319,0.288,0.678,0.432,1.075,0.432
				c0.277,0,0.505-0.082,0.683-0.247S28.1,39.38,28.1,39.149c0-0.277-0.098-0.512-0.294-0.703c-0.196-0.19-0.589-0.432-1.178-0.722
				c-0.589-0.291-0.975-0.554-1.158-0.789c-0.184-0.23-0.275-0.523-0.275-0.879c0-0.456,0.157-0.838,0.471-1.146
				s0.722-0.463,1.225-0.463c0.214,0,0.479,0.047,0.793,0.141c0.204,0.063,0.343,0.095,0.416,0.095c0.063,0,0.112-0.015,0.149-0.043
				c0.037-0.029,0.079-0.094,0.126-0.192H28.579z"/>
			<path fill="#FFFFFF" d="M31.743,34.447v4.475c0,0.345,0.025,0.575,0.075,0.69c0.049,0.115,0.124,0.202,0.224,0.259
				c0.099,0.059,0.283,0.087,0.549,0.087v0.22h-2.708v-0.22c0.272,0,0.456-0.026,0.55-0.078c0.094-0.053,0.169-0.139,0.224-0.26
				c0.055-0.12,0.083-0.354,0.083-0.698v-2.144c0-0.606-0.019-0.999-0.055-1.178c-0.031-0.131-0.077-0.221-0.137-0.271
				s-0.143-0.074-0.247-0.074c-0.115,0-0.254,0.031-0.417,0.094l-0.086-0.22l1.68-0.683H31.743z M31.24,31.534
				c0.167,0,0.311,0.061,0.432,0.181s0.181,0.267,0.181,0.439c0,0.168-0.06,0.312-0.181,0.432c-0.121,0.121-0.264,0.181-0.432,0.181
				c-0.173,0-0.319-0.06-0.439-0.181c-0.121-0.12-0.181-0.264-0.181-0.432c0-0.173,0.06-0.319,0.181-0.439
				C30.921,31.595,31.067,31.534,31.24,31.534z"/>
			<path fill="#FFFFFF" d="M35.189,31.534v7.388c0,0.345,0.025,0.575,0.078,0.69s0.131,0.202,0.235,0.259
				c0.104,0.059,0.301,0.087,0.589,0.087v0.22H33.36v-0.22c0.256,0,0.432-0.026,0.526-0.078c0.094-0.053,0.167-0.139,0.22-0.26
				c0.052-0.12,0.079-0.354,0.079-0.698v-5.056c0-0.628-0.015-1.015-0.043-1.158s-0.074-0.242-0.137-0.294
				c-0.063-0.053-0.144-0.079-0.243-0.079c-0.105,0-0.238,0.031-0.4,0.095l-0.102-0.212l1.664-0.684H35.189z"/>
			<path fill="#FFFFFF" d="M38.65,34.447v4.475c0,0.345,0.025,0.575,0.075,0.69s0.124,0.202,0.224,0.259
				c0.1,0.059,0.283,0.087,0.549,0.087v0.22H36.79v-0.22c0.272,0,0.456-0.026,0.55-0.078c0.094-0.053,0.169-0.139,0.224-0.26
				c0.056-0.12,0.083-0.354,0.083-0.698v-2.144c0-0.606-0.02-0.999-0.056-1.178c-0.031-0.131-0.077-0.221-0.138-0.271
				c-0.06-0.05-0.143-0.074-0.246-0.074c-0.115,0-0.254,0.031-0.417,0.094l-0.086-0.22l1.68-0.683H38.65z M38.148,31.534
				c0.168,0,0.311,0.061,0.432,0.181s0.181,0.267,0.181,0.439c0,0.168-0.06,0.312-0.181,0.432c-0.121,0.121-0.264,0.181-0.432,0.181
				c-0.173,0-0.319-0.06-0.439-0.181c-0.121-0.12-0.181-0.264-0.181-0.432c0-0.173,0.06-0.319,0.181-0.439
				C37.829,31.595,37.976,31.534,38.148,31.534z"/>
			<path fill="#FFFFFF" d="M45.064,34.611v3.376c0,0.644,0.016,1.038,0.047,1.182s0.08,0.243,0.146,0.298
				c0.065,0.056,0.143,0.083,0.231,0.083c0.126,0,0.268-0.034,0.424-0.103l0.087,0.212l-1.665,0.691H44.06v-1.178
				c-0.476,0.519-0.84,0.844-1.091,0.978c-0.252,0.134-0.516,0.2-0.793,0.2c-0.314,0-0.585-0.091-0.813-0.271
				c-0.229-0.181-0.387-0.414-0.475-0.699c-0.09-0.285-0.135-0.687-0.135-1.205v-2.48c0-0.268-0.028-0.45-0.086-0.55
				c-0.057-0.1-0.143-0.177-0.255-0.231s-0.313-0.08-0.601-0.074v-0.229h1.947v3.722c0,0.523,0.09,0.865,0.271,1.024
				s0.399,0.239,0.655,0.239c0.173,0,0.369-0.054,0.589-0.161c0.22-0.106,0.481-0.314,0.785-0.624v-3.155
				c0-0.314-0.058-0.527-0.173-0.641c-0.115-0.112-0.354-0.171-0.715-0.176v-0.229H45.064z"/>
			<path fill="#FFFFFF" d="M48.063,35.632c0.403-0.402,0.642-0.636,0.715-0.698c0.183-0.151,0.381-0.271,0.593-0.357
				c0.212-0.086,0.42-0.129,0.624-0.129c0.351,0,0.651,0.102,0.902,0.306s0.419,0.497,0.503,0.879
				c0.418-0.486,0.771-0.806,1.06-0.957c0.288-0.152,0.583-0.228,0.887-0.228c0.293,0,0.555,0.075,0.785,0.228
				c0.23,0.151,0.411,0.4,0.542,0.745c0.089,0.236,0.134,0.604,0.134,1.107v2.395c0,0.345,0.025,0.583,0.078,0.714
				c0.042,0.09,0.118,0.165,0.228,0.228c0.11,0.063,0.288,0.095,0.534,0.095v0.22h-2.748v-0.22h0.118
				c0.24,0,0.426-0.047,0.557-0.142c0.095-0.063,0.163-0.165,0.204-0.306c0.017-0.068,0.024-0.265,0.024-0.589v-2.395
				c0-0.455-0.056-0.774-0.165-0.958c-0.157-0.262-0.411-0.393-0.762-0.393c-0.215,0-0.431,0.054-0.647,0.161
				c-0.218,0.107-0.48,0.308-0.789,0.601l-0.008,0.063l0.008,0.268v2.653c0,0.382,0.022,0.619,0.066,0.71
				c0.045,0.092,0.126,0.169,0.243,0.231c0.118,0.063,0.318,0.095,0.601,0.095v0.22h-2.818v-0.22c0.31,0,0.521-0.037,0.637-0.11
				c0.114-0.073,0.196-0.183,0.243-0.329c0.021-0.068,0.031-0.268,0.031-0.597v-2.395c0-0.455-0.068-0.782-0.204-0.981
				c-0.178-0.256-0.427-0.385-0.746-0.385c-0.22,0-0.437,0.058-0.651,0.173c-0.335,0.178-0.594,0.38-0.777,0.604v2.983
				c0,0.361,0.024,0.597,0.074,0.706c0.05,0.11,0.125,0.192,0.225,0.248c0.099,0.055,0.301,0.082,0.604,0.082v0.22h-2.748v-0.22
				c0.256,0,0.435-0.027,0.533-0.082c0.1-0.056,0.176-0.142,0.229-0.26c0.053-0.117,0.078-0.35,0.078-0.694v-2.128
				c0-0.612-0.018-1.007-0.055-1.186c-0.026-0.136-0.069-0.229-0.13-0.278c-0.06-0.05-0.143-0.074-0.247-0.074
				c-0.115,0-0.251,0.031-0.408,0.094l-0.094-0.22l1.68-0.683h0.259V35.632z"/>
		</g>
		<g>
			<path fill="#FFFFFF" d="M5.771,44.157H4.289v-2.516h0.184v2.332h1.298V44.157z"/>
			<path fill="#FFFFFF" d="M8.088,44.157H6.271v-2.516h1.754v0.184H6.455v0.931h1.472v0.184H6.455v1.034h1.633V44.157z"/>
			<path fill="#FFFFFF" d="M10.64,44.157h-0.221l-0.308-0.809H8.874c-0.045,0.127-0.093,0.262-0.145,0.403s-0.102,0.276-0.149,0.405
				H8.384c0.083-0.218,0.164-0.431,0.245-0.639c0.081-0.209,0.16-0.416,0.239-0.621c0.08-0.206,0.16-0.413,0.24-0.621
				c0.081-0.209,0.162-0.42,0.245-0.637h0.26L10.64,44.157z M10.059,43.203l-0.584-1.398l-0.553,1.398H10.059z"/>
			<path fill="#FFFFFF" d="M13.061,42.88c0,0.852-0.424,1.277-1.27,1.277h-0.76v-2.513h0.76c0.424,0,0.742,0.102,0.953,0.307
				C12.955,42.155,13.061,42.465,13.061,42.88z M12.865,42.88c0-0.166-0.017-0.313-0.049-0.443c-0.033-0.13-0.091-0.241-0.173-0.331
				c-0.083-0.092-0.193-0.161-0.332-0.209c-0.139-0.047-0.314-0.071-0.525-0.071h-0.572v2.148h0.572
				c0.209,0,0.384-0.025,0.522-0.073c0.139-0.049,0.25-0.122,0.333-0.216c0.083-0.094,0.14-0.208,0.174-0.343
				C12.848,43.207,12.865,43.053,12.865,42.88z"/>
			<path fill="#FFFFFF" d="M15.428,44.157h-1.817v-2.516h1.755v0.184h-1.571v0.931h1.472v0.184h-1.472v1.034h1.633V44.157z"/>
			<path fill="#FFFFFF" d="M18.008,44.157h-0.202l-0.25-0.668c-0.025-0.064-0.052-0.125-0.082-0.182
				c-0.03-0.057-0.065-0.106-0.105-0.148s-0.085-0.076-0.136-0.1c-0.052-0.024-0.112-0.037-0.181-0.037h-0.879v1.135h-0.184v-2.516
				h1.132c0.105,0,0.208,0.011,0.307,0.028c0.099,0.02,0.187,0.054,0.264,0.104c0.077,0.049,0.139,0.116,0.185,0.202
				c0.046,0.088,0.069,0.197,0.069,0.332c0,0.085-0.01,0.163-0.031,0.235c-0.021,0.073-0.052,0.139-0.094,0.196
				c-0.042,0.057-0.096,0.106-0.161,0.146s-0.141,0.069-0.229,0.088c0.048,0.037,0.087,0.072,0.117,0.106
				c0.031,0.034,0.058,0.069,0.08,0.107c0.022,0.039,0.042,0.081,0.06,0.127c0.018,0.045,0.038,0.099,0.061,0.158L18.008,44.157z
				 M16.173,42.839h0.873c0.124,0,0.23-0.009,0.319-0.028c0.089-0.019,0.162-0.048,0.219-0.091c0.058-0.042,0.1-0.096,0.127-0.164
				c0.028-0.066,0.042-0.149,0.042-0.248c0-0.173-0.054-0.297-0.164-0.37c-0.109-0.075-0.273-0.112-0.49-0.112h-0.925V42.839z"/>
			<path fill="#FFFFFF" d="M19.491,44.203c-0.17,0-0.319-0.018-0.445-0.054c-0.127-0.036-0.234-0.088-0.321-0.154
				c-0.086-0.066-0.153-0.147-0.199-0.241s-0.072-0.2-0.08-0.318h0.182c0.018,0.113,0.053,0.207,0.103,0.283
				c0.05,0.075,0.113,0.135,0.188,0.179c0.074,0.044,0.158,0.076,0.253,0.094c0.095,0.019,0.196,0.027,0.303,0.027
				c0.112,0,0.213-0.011,0.303-0.035c0.089-0.023,0.166-0.059,0.229-0.103c0.064-0.046,0.113-0.1,0.146-0.163
				c0.034-0.064,0.051-0.136,0.051-0.215c0-0.084-0.014-0.155-0.044-0.213c-0.029-0.057-0.078-0.108-0.146-0.151
				c-0.069-0.042-0.16-0.08-0.272-0.114c-0.112-0.034-0.252-0.067-0.419-0.103c-0.138-0.031-0.256-0.066-0.355-0.105
				c-0.099-0.041-0.181-0.087-0.245-0.14c-0.064-0.053-0.112-0.113-0.143-0.181c-0.031-0.069-0.046-0.148-0.046-0.238
				c0-0.099,0.021-0.188,0.063-0.27c0.041-0.08,0.1-0.15,0.175-0.208c0.076-0.059,0.167-0.104,0.273-0.136s0.224-0.048,0.352-0.048
				c0.129,0,0.247,0.015,0.354,0.044s0.201,0.074,0.282,0.131c0.08,0.057,0.146,0.125,0.195,0.206s0.081,0.173,0.095,0.276h-0.176
				c-0.017-0.068-0.045-0.131-0.083-0.189c-0.039-0.058-0.087-0.107-0.148-0.15c-0.061-0.042-0.132-0.075-0.215-0.099
				c-0.084-0.024-0.179-0.035-0.286-0.035c-0.225,0-0.396,0.041-0.511,0.123c-0.116,0.083-0.173,0.196-0.173,0.34
				c0,0.067,0.011,0.123,0.032,0.174c0.021,0.048,0.058,0.093,0.109,0.131c0.051,0.04,0.119,0.073,0.203,0.104
				s0.188,0.059,0.314,0.084c0.074,0.016,0.149,0.031,0.228,0.048c0.078,0.018,0.154,0.037,0.228,0.061
				c0.075,0.022,0.146,0.051,0.213,0.085c0.067,0.033,0.126,0.074,0.176,0.123c0.05,0.05,0.089,0.107,0.12,0.177
				c0.03,0.067,0.044,0.148,0.044,0.242c0,0.106-0.022,0.205-0.068,0.295c-0.045,0.089-0.107,0.167-0.188,0.231
				c-0.081,0.066-0.176,0.116-0.287,0.152S19.622,44.203,19.491,44.203z"/>
			<path fill="#FFFFFF" d="M22.87,44.157h-0.186v-1.252h-1.55v1.252H20.95v-2.516h0.184v1.079h1.55v-1.079h0.186V44.157z"/>
			<path fill="#FFFFFF" d="M23.789,44.157h-0.184v-2.516h0.184V44.157z"/>
			<path fill="#FFFFFF" d="M24.519,41.642h0.915c0.122,0,0.24,0.011,0.353,0.03s0.213,0.056,0.3,0.109
				c0.086,0.052,0.155,0.125,0.207,0.214c0.051,0.091,0.077,0.206,0.077,0.346c0,0.245-0.078,0.434-0.233,0.563
				c-0.156,0.128-0.383,0.192-0.681,0.192h-0.753v1.062h-0.184V41.642z M24.703,42.912h0.76c0.128,0,0.238-0.012,0.328-0.037
				c0.091-0.023,0.165-0.06,0.222-0.107c0.057-0.048,0.099-0.106,0.125-0.176c0.026-0.07,0.039-0.15,0.039-0.242
				c0-0.112-0.02-0.202-0.059-0.271c-0.039-0.068-0.092-0.121-0.158-0.16c-0.067-0.037-0.144-0.062-0.231-0.073
				c-0.087-0.013-0.179-0.02-0.276-0.02h-0.75V42.912z"/>
			<path fill="#FFFFFF" d="M30.995,42.88c0,0.852-0.423,1.277-1.27,1.277h-0.76v-2.513h0.76c0.424,0,0.742,0.102,0.953,0.307
				C30.89,42.155,30.995,42.465,30.995,42.88z M30.8,42.88c0-0.166-0.016-0.313-0.049-0.443c-0.033-0.13-0.09-0.241-0.173-0.331
				c-0.083-0.092-0.193-0.161-0.332-0.209c-0.139-0.047-0.313-0.071-0.525-0.071h-0.572v2.148h0.572
				c0.209,0,0.384-0.025,0.522-0.073c0.139-0.049,0.25-0.122,0.333-0.216s0.14-0.208,0.174-0.343
				C30.783,43.207,30.8,43.053,30.8,42.88z"/>
			<path fill="#FFFFFF" d="M33.364,44.157h-1.818v-2.516h1.754v0.184h-1.57v0.931h1.472v0.184h-1.472v1.034h1.633V44.157z"/>
			<path fill="#FFFFFF" d="M35.89,41.642l-0.985,2.516h-0.235l-0.985-2.516h0.204l0.9,2.285l0.9-2.285H35.89z"/>
			<path fill="#FFFFFF" d="M38.127,44.157h-1.816v-2.516h1.754v0.184h-1.57v0.931h1.472v0.184h-1.472v1.034h1.633V44.157z"/>
			<path fill="#FFFFFF" d="M40.179,44.157h-1.482v-2.516h0.185v2.332h1.298V44.157z"/>
			<path fill="#FFFFFF" d="M41.739,41.597c0.172,0,0.33,0.03,0.476,0.092c0.146,0.062,0.271,0.148,0.376,0.262
				s0.187,0.249,0.245,0.408c0.06,0.16,0.089,0.337,0.089,0.532s-0.028,0.373-0.087,0.534c-0.06,0.16-0.141,0.299-0.245,0.414
				c-0.104,0.115-0.229,0.205-0.373,0.269c-0.146,0.063-0.305,0.096-0.48,0.096c-0.175,0-0.334-0.032-0.48-0.096
				c-0.145-0.063-0.27-0.152-0.375-0.268c-0.104-0.114-0.187-0.253-0.244-0.413c-0.058-0.161-0.087-0.339-0.087-0.536
				c0-0.196,0.029-0.374,0.088-0.534c0.059-0.159,0.142-0.296,0.247-0.407c0.106-0.113,0.23-0.199,0.376-0.261
				C41.408,41.627,41.567,41.597,41.739,41.597z M41.737,44.019c0.145,0,0.277-0.024,0.398-0.074
				c0.122-0.05,0.228-0.122,0.316-0.219s0.156-0.215,0.206-0.355c0.049-0.14,0.074-0.299,0.074-0.479
				c0-0.18-0.025-0.339-0.075-0.477s-0.118-0.255-0.207-0.349c-0.088-0.094-0.192-0.165-0.313-0.213
				c-0.12-0.049-0.251-0.072-0.394-0.072c-0.146,0-0.279,0.023-0.401,0.073c-0.121,0.049-0.227,0.12-0.314,0.214
				c-0.089,0.095-0.159,0.211-0.209,0.35c-0.05,0.137-0.074,0.295-0.074,0.474c0,0.181,0.024,0.34,0.074,0.479
				c0.048,0.141,0.117,0.259,0.205,0.355c0.087,0.097,0.192,0.169,0.313,0.219C41.461,43.994,41.594,44.019,41.737,44.019z"/>
			<path fill="#FFFFFF" d="M43.456,41.642h0.914c0.122,0,0.239,0.011,0.353,0.03s0.214,0.056,0.301,0.109
				c0.086,0.052,0.154,0.125,0.206,0.214c0.052,0.091,0.077,0.206,0.077,0.346c0,0.245-0.077,0.434-0.233,0.563
				c-0.155,0.128-0.383,0.192-0.681,0.192H43.64v1.062h-0.184V41.642z M43.64,42.912h0.76c0.128,0,0.238-0.012,0.328-0.037
				c0.091-0.023,0.164-0.06,0.222-0.107s0.099-0.106,0.126-0.176c0.024-0.07,0.038-0.15,0.038-0.242c0-0.112-0.02-0.202-0.059-0.271
				c-0.038-0.068-0.092-0.121-0.158-0.16c-0.066-0.037-0.143-0.062-0.231-0.073c-0.086-0.013-0.179-0.02-0.275-0.02h-0.75V42.912z"
				/>
			<path fill="#FFFFFF" d="M48.178,44.157h-0.184v-2.214l-0.905,2.214h-0.192l-0.903-2.214v2.214h-0.185v-2.516h0.268l0.916,2.285
				l0.924-2.285h0.262V44.157z"/>
			<path fill="#FFFFFF" d="M50.632,44.157h-1.816v-2.516h1.755v0.184h-1.571v0.931h1.472v0.184h-1.472v1.034h1.633V44.157z"/>
			<path fill="#FFFFFF" d="M53.135,44.157h-0.241l-1.535-2.297v2.297h-0.183v-2.516h0.252l1.523,2.292v-2.292h0.184V44.157z"/>
			<path fill="#FFFFFF" d="M55.501,41.825h-0.88v2.332h-0.184v-2.332h-0.869v-0.184h1.933V41.825z"/>
		</g>
	</g>
</g>
</svg>
