<?xml version="1.0" encoding="utf-8"?>
<!-- Generator: Adobe Illustrator 16.0.0, SVG Export Plug-In . SVG Version: 6.00 Build 0)  -->
<!DOCTYPE svg PUBLIC "-//W3C//DTD SVG 1.1//EN" "http://www.w3.org/Graphics/SVG/1.1/DTD/svg11.dtd">
<svg version="1.1" id="Layer_1" xmlns="http://www.w3.org/2000/svg" xmlns:xlink="http://www.w3.org/1999/xlink" x="0px" y="0px"
	 width="100px" height="100px" viewBox="0 0 100 100" enable-background="new 0 0 100 100" xml:space="preserve">
<path opacity="0.9" fill="#FFFFFF" d="M56.106,15.392l6.647-3.881H41.22c-2.856,0-5.915,0.333-9.187,0.995
	c-3.299,0.778-6.479,2.422-9.539,4.939c-4.46,4.309-6.686,9.104-6.686,14.394c0,4.377,1.57,8.209,4.723,11.505
	c3.004,3.534,7.375,5.34,13.109,5.412c1.075,0,2.233-0.072,3.457-0.213c-0.198,0.568-0.422,1.179-0.659,1.85
	c-0.271,0.631-0.4,1.427-0.4,2.381c0,1.578,0.35,2.938,1.06,4.064c0.606,1.158,1.301,2.252,2.075,3.271
	c-2.511,0.071-5.668,0.388-9.47,0.941c-3.837,0.665-7.505,2.001-10.989,3.988c-3.108,1.851-5.253,4-6.435,6.446
	c-1.226,2.45-1.836,4.669-1.836,6.658c0,4.094,1.882,7.604,5.63,10.541c3.721,3.146,9.353,4.754,16.895,4.82
	c9.012-0.141,15.911-2.287,20.684-6.463c4.611-4.031,6.914-8.65,6.914-13.865c-0.072-3.674-0.909-6.655-2.521-8.934
	c-1.711-2.242-3.7-4.281-5.969-6.139l-3.658-2.996c-0.524-0.522-1.067-1.139-1.628-1.843c-0.656-0.736-0.985-1.654-0.985-2.783
	c0-1.155,0.32-2.168,0.963-3.044c0.547-0.842,1.133-1.594,1.778-2.259c1.122-0.981,2.18-1.947,3.177-2.89
	c0.896-0.944,1.746-1.978,2.545-3.099c1.641-2.313,2.493-5.392,2.555-9.245c0-2.102-0.235-3.94-0.711-5.516
	c-0.576-1.579-1.237-2.94-1.982-4.097c-0.776-1.222-1.568-2.26-2.38-3.101c-0.847-0.808-1.604-1.416-2.283-1.839H56.106z
	 M49.712,85.631c-2.671,2.175-6.545,3.296-11.622,3.37c-5.657-0.074-10.112-1.335-13.371-3.789
	c-3.431-2.451-5.138-5.564-5.138-9.353c0-1.925,0.389-3.571,1.178-4.937c0.685-1.3,1.525-2.383,2.52-3.259
	c1.032-0.842,2.042-1.486,3.035-1.94c0.994-0.422,1.765-0.737,2.313-0.95c2.331-0.701,4.613-1.209,6.842-1.526
	c2.261-0.207,3.671-0.275,4.219-0.207c0.923,0,1.728,0.037,2.419,0.104c4.011,2.807,6.959,5.176,8.845,7.094
	c1.78,2.028,2.673,4.414,2.673,7.149C53.624,80.746,52.318,83.493,49.712,85.631z M32.63,43.76c-1.751-1.367-3.17-3.035-4.276-4.997
	c-2.28-4.212-3.416-8.264-3.416-12.157c-0.074-2.948,0.705-5.614,2.34-8.003c1.935-2.281,4.359-3.456,7.28-3.526
	c2.202,0.07,4.153,0.723,5.85,1.947c1.667,1.296,3.007,2.983,4.029,5.052c2.169,4.313,3.257,8.597,3.257,12.842
	c0,0.984-0.08,2.192-0.237,3.63c-0.259,1.442-0.848,2.845-1.76,4.212c-1.889,1.929-4.249,2.949-7.083,3.057
	C36.365,45.817,34.372,45.134,32.63,43.76z M91.932,23.273H80.634V11.971h-5.475v11.302H63.858v5.475h11.301v11.297h5.475V28.748
	h11.298V23.273z"/>
</svg>
