<?xml version="1.0" encoding="utf-8"?>
<!-- Generator: Adobe Illustrator 16.0.0, SVG Export Plug-In . SVG Version: 6.00 Build 0)  -->
<!DOCTYPE svg PUBLIC "-//W3C//DTD SVG 1.1//EN" "http://www.w3.org/Graphics/SVG/1.1/DTD/svg11.dtd">
<svg version="1.1" id="Layer_1" xmlns="http://www.w3.org/2000/svg" xmlns:xlink="http://www.w3.org/1999/xlink" x="0px" y="0px"
	 width="80px" height="20px" viewBox="0 0 80 20" enable-background="new 0 0 80 20" xml:space="preserve">
<circle fill="#ECF0F1" cx="10" cy="10" r="10"/>
<g>
	<path fill="#ECF0F1" d="M40,1c4.962,0,9,4.038,9,9c0,4.963-4.038,9-9,9c-4.963,0-9-4.037-9-9C31,5.038,35.038,1,40,1 M40,0
		c-5.523,0-10,4.478-10,10s4.477,10,10,10c5.523,0,10-4.478,10-10S45.523,0,40,0L40,0z"/>
</g>
<g>
	<path fill="#ECF0F1" d="M70.001,3c3.86,0,7.001,3.14,7.001,7c0,3.859-3.141,7-7.001,7c-3.859,0-7-3.141-7-7
		C63.001,6.14,66.142,3,70.001,3 M70.001,0c-5.523,0-10,4.478-10,10s4.477,10,10,10s10.001-4.478,10.001-10S75.524,0,70.001,0
		L70.001,0z"/>
</g>
</svg>
